<?xml version="1.0" encoding="UTF-8"?>
<!DOCTYPE svg PUBLIC "-//W3C//DTD SVG 1.1//EN" "http://www.w3.org/Graphics/SVG/1.1/DTD/svg11.dtd">
<svg xmlns="http://www.w3.org/2000/svg" version="1.1" width="920px" height="920px" style="shape-rendering:geometricPrecision; text-rendering:geometricPrecision; image-rendering:optimizeQuality; fill-rule:evenodd; clip-rule:evenodd" xmlns:xlink="http://www.w3.org/1999/xlink">
<g><path style="opacity:1" fill="#f2f2f2" d="M -0.5,-0.5 C 299.5,-0.5 599.5,-0.5 899.5,-0.5C 899.5,4.5 899.5,9.5 899.5,14.5C 904.5,14.5 909.5,14.5 914.5,14.5C 914.5,19.5 914.5,24.5 914.5,29.5C 909.5,29.5 904.5,29.5 899.5,29.5C 899.5,34.5 899.5,39.5 899.5,44.5C 904.5,44.5 909.5,44.5 914.5,44.5C 914.5,49.5 914.5,54.5 914.5,59.5C 909.5,59.5 904.5,59.5 899.5,59.5C 899.5,64.5 899.5,69.5 899.5,74.5C 904.5,74.5 909.5,74.5 914.5,74.5C 914.5,79.5 914.5,84.5 914.5,89.5C 909.5,89.5 904.5,89.5 899.5,89.5C 899.5,94.5 899.5,99.5 899.5,104.5C 904.5,104.5 909.5,104.5 914.5,104.5C 914.5,109.5 914.5,114.5 914.5,119.5C 909.5,119.5 904.5,119.5 899.5,119.5C 899.5,124.5 899.5,129.5 899.5,134.5C 904.5,134.5 909.5,134.5 914.5,134.5C 914.5,139.5 914.5,144.5 914.5,149.5C 909.5,149.5 904.5,149.5 899.5,149.5C 899.5,154.5 899.5,159.5 899.5,164.5C 904.5,164.5 909.5,164.5 914.5,164.5C 914.5,169.5 914.5,174.5 914.5,179.5C 909.5,179.5 904.5,179.5 899.5,179.5C 899.5,184.5 899.5,189.5 899.5,194.5C 904.5,194.5 909.5,194.5 914.5,194.5C 914.5,199.5 914.5,204.5 914.5,209.5C 909.5,209.5 904.5,209.5 899.5,209.5C 899.5,214.5 899.5,219.5 899.5,224.5C 904.5,224.5 909.5,224.5 914.5,224.5C 914.5,229.5 914.5,234.5 914.5,239.5C 909.5,239.5 904.5,239.5 899.5,239.5C 899.5,244.5 899.5,249.5 899.5,254.5C 904.5,254.5 909.5,254.5 914.5,254.5C 914.5,259.5 914.5,264.5 914.5,269.5C 909.5,269.5 904.5,269.5 899.5,269.5C 899.5,274.5 899.5,279.5 899.5,284.5C 904.5,284.5 909.5,284.5 914.5,284.5C 914.5,289.5 914.5,294.5 914.5,299.5C 909.5,299.5 904.5,299.5 899.5,299.5C 899.5,304.5 899.5,309.5 899.5,314.5C 904.5,314.5 909.5,314.5 914.5,314.5C 914.5,319.5 914.5,324.5 914.5,329.5C 909.5,329.5 904.5,329.5 899.5,329.5C 899.5,334.5 899.5,339.5 899.5,344.5C 904.5,344.5 909.5,344.5 914.5,344.5C 914.5,349.5 914.5,354.5 914.5,359.5C 909.5,359.5 904.5,359.5 899.5,359.5C 899.5,364.5 899.5,369.5 899.5,374.5C 904.5,374.5 909.5,374.5 914.5,374.5C 914.5,379.5 914.5,384.5 914.5,389.5C 909.5,389.5 904.5,389.5 899.5,389.5C 899.5,394.5 899.5,399.5 899.5,404.5C 904.5,404.5 909.5,404.5 914.5,404.5C 914.5,409.5 914.5,414.5 914.5,419.5C 909.5,419.5 904.5,419.5 899.5,419.5C 899.5,424.5 899.5,429.5 899.5,434.5C 904.5,434.5 909.5,434.5 914.5,434.5C 914.5,439.5 914.5,444.5 914.5,449.5C 909.5,449.5 904.5,449.5 899.5,449.5C 899.5,454.5 899.5,459.5 899.5,464.5C 894.5,464.5 889.5,464.5 884.5,464.5C 884.5,459.5 884.5,454.5 884.5,449.5C 879.5,449.5 874.5,449.5 869.5,449.5C 869.5,444.5 869.5,439.5 869.5,434.5C 864.5,434.5 859.5,434.5 854.5,434.5C 854.5,429.5 854.5,424.5 854.5,419.5C 849.5,419.5 844.5,419.5 839.5,419.5C 839.5,414.5 839.5,409.5 839.5,404.5C 834.5,404.5 829.5,404.5 824.5,404.5C 824.5,399.5 824.5,394.5 824.5,389.5C 819.5,389.5 814.5,389.5 809.5,389.5C 809.5,384.5 809.5,379.5 809.5,374.5C 804.5,374.5 799.5,374.5 794.5,374.5C 794.5,369.5 794.5,364.5 794.5,359.5C 789.5,359.5 784.5,359.5 779.5,359.5C 779.5,354.5 779.5,349.5 779.5,344.5C 774.5,344.5 769.5,344.5 764.5,344.5C 764.5,339.5 764.5,334.5 764.5,329.5C 759.5,329.5 754.5,329.5 749.5,329.5C 749.5,324.5 749.5,319.5 749.5,314.5C 744.5,314.5 739.5,314.5 734.5,314.5C 734.5,309.5 734.5,304.5 734.5,299.5C 729.5,299.5 724.5,299.5 719.5,299.5C 719.5,294.5 719.5,289.5 719.5,284.5C 714.5,284.5 709.5,284.5 704.5,284.5C 704.5,279.5 704.5,274.5 704.5,269.5C 699.5,269.5 694.5,269.5 689.5,269.5C 689.5,273.5 689.5,277.5 689.5,281.5C 685.789,280.116 682.123,280.282 678.5,282C 675.833,284 673.167,286 670.5,288C 663.972,295.561 657.805,303.394 652,311.5C 632.827,329.459 609.994,339.292 583.5,341C 551.613,342.518 520.613,337.184 490.5,325C 542.367,281.045 556.867,226.878 534,162.5C 505.793,106.155 460.293,78.6554 397.5,80C 340.32,86.2291 300.653,115.729 278.5,168.5C 276.507,170.163 274.174,171.33 271.5,172C 262.893,173.204 254.559,172.204 246.5,169C 239.854,163.167 232.187,160.5 223.5,161C 217.603,164.812 214.603,170.312 214.5,177.5C 216.218,190.489 220.052,202.822 226,214.5C 236.193,232.705 248.693,249.205 263.5,264C 269.559,268.893 276.226,272.726 283.5,275.5C 285.807,279.437 288.14,283.437 290.5,287.5C 203.312,324.839 166.145,390.839 179,485.5C 181.263,506.293 188.263,525.293 200,542.5C 222.166,574.839 250.666,599.839 285.5,617.5C 284.517,621.298 284.183,625.298 284.5,629.5C 289.5,629.5 294.5,629.5 299.5,629.5C 299.5,634.5 299.5,639.5 299.5,644.5C 304.5,644.5 309.5,644.5 314.5,644.5C 314.5,649.5 314.5,654.5 314.5,659.5C 319.5,659.5 324.5,659.5 329.5,659.5C 329.5,664.5 329.5,669.5 329.5,674.5C 334.5,674.5 339.5,674.5 344.5,674.5C 344.5,679.5 344.5,684.5 344.5,689.5C 349.5,689.5 354.5,689.5 359.5,689.5C 359.5,694.5 359.5,699.5 359.5,704.5C 364.5,704.5 369.5,704.5 374.5,704.5C 374.5,709.5 374.5,714.5 374.5,719.5C 369.5,719.5 364.5,719.5 359.5,719.5C 359.5,724.5 359.5,729.5 359.5,734.5C 354.5,734.5 349.5,734.5 344.5,734.5C 344.5,739.5 344.5,744.5 344.5,749.5C 339.5,749.5 334.5,749.5 329.5,749.5C 329.5,744.5 329.5,739.5 329.5,734.5C 325.167,734.5 320.833,734.5 316.5,734.5C 316.806,731.615 316.473,728.948 315.5,726.5C 312.038,725.518 308.371,725.185 304.5,725.5C 304.5,738.5 304.5,751.5 304.5,764.5C 302.833,764.5 301.167,764.5 299.5,764.5C 299.5,769.5 299.5,774.5 299.5,779.5C 294.5,779.5 289.5,779.5 284.5,779.5C 284.5,774.5 284.5,769.5 284.5,764.5C 275.015,765.058 265.682,765.724 256.5,766.5C 255.518,763.038 255.185,759.371 255.5,755.5C 261.833,755.5 268.167,755.5 274.5,755.5C 274.5,752.167 274.5,748.833 274.5,745.5C 268.167,745.5 261.833,745.5 255.5,745.5C 255.5,742.167 255.5,738.833 255.5,735.5C 264.167,735.5 272.833,735.5 281.5,735.5C 281.5,732.5 281.5,729.5 281.5,726.5C 269.5,726.5 257.5,726.5 245.5,726.5C 244.505,738.989 244.171,751.656 244.5,764.5C 242.833,764.5 241.167,764.5 239.5,764.5C 239.5,769.5 239.5,774.5 239.5,779.5C 244.5,779.5 249.5,779.5 254.5,779.5C 254.5,784.5 254.5,789.5 254.5,794.5C 259.5,794.5 264.5,794.5 269.5,794.5C 269.5,799.5 269.5,804.5 269.5,809.5C 274.5,809.5 279.5,809.5 284.5,809.5C 284.5,811.833 284.5,814.167 284.5,816.5C 282.265,816.205 280.265,816.539 278.5,817.5C 271.81,819.35 268.977,823.683 270,830.5C 272.367,837.352 277.2,840.352 284.5,839.5C 284.5,844.5 284.5,849.5 284.5,854.5C 289.5,854.5 294.5,854.5 299.5,854.5C 299.5,859.5 299.5,864.5 299.5,869.5C 304.5,869.5 309.5,869.5 314.5,869.5C 314.5,874.5 314.5,879.5 314.5,884.5C 319.5,884.5 324.5,884.5 329.5,884.5C 329.5,889.5 329.5,894.5 329.5,899.5C 329.5,904.5 329.5,909.5 329.5,914.5C 324.5,914.5 319.5,914.5 314.5,914.5C 314.5,909.5 314.5,904.5 314.5,899.5C 309.5,899.5 304.5,899.5 299.5,899.5C 299.5,904.5 299.5,909.5 299.5,914.5C 294.5,914.5 289.5,914.5 284.5,914.5C 284.5,909.5 284.5,904.5 284.5,899.5C 279.5,899.5 274.5,899.5 269.5,899.5C 269.5,904.5 269.5,909.5 269.5,914.5C 264.5,914.5 259.5,914.5 254.5,914.5C 254.5,909.5 254.5,904.5 254.5,899.5C 249.5,899.5 244.5,899.5 239.5,899.5C 239.5,904.5 239.5,909.5 239.5,914.5C 234.5,914.5 229.5,914.5 224.5,914.5C 224.5,909.5 224.5,904.5 224.5,899.5C 219.5,899.5 214.5,899.5 209.5,899.5C 209.5,904.5 209.5,909.5 209.5,914.5C 204.5,914.5 199.5,914.5 194.5,914.5C 194.5,909.5 194.5,904.5 194.5,899.5C 189.5,899.5 184.5,899.5 179.5,899.5C 179.5,904.5 179.5,909.5 179.5,914.5C 174.5,914.5 169.5,914.5 164.5,914.5C 164.5,909.5 164.5,904.5 164.5,899.5C 159.5,899.5 154.5,899.5 149.5,899.5C 149.5,904.5 149.5,909.5 149.5,914.5C 144.5,914.5 139.5,914.5 134.5,914.5C 134.5,909.5 134.5,904.5 134.5,899.5C 129.5,899.5 124.5,899.5 119.5,899.5C 119.5,904.5 119.5,909.5 119.5,914.5C 114.5,914.5 109.5,914.5 104.5,914.5C 104.5,909.5 104.5,904.5 104.5,899.5C 99.5,899.5 94.5,899.5 89.5,899.5C 89.5,904.5 89.5,909.5 89.5,914.5C 84.5,914.5 79.5,914.5 74.5,914.5C 74.5,909.5 74.5,904.5 74.5,899.5C 69.5,899.5 64.5,899.5 59.5,899.5C 59.5,904.5 59.5,909.5 59.5,914.5C 54.5,914.5 49.5,914.5 44.5,914.5C 44.5,909.5 44.5,904.5 44.5,899.5C 39.5,899.5 34.5,899.5 29.5,899.5C 29.5,904.5 29.5,909.5 29.5,914.5C 24.5,914.5 19.5,914.5 14.5,914.5C 14.5,909.5 14.5,904.5 14.5,899.5C 9.5,899.5 4.5,899.5 -0.5,899.5C -0.5,599.5 -0.5,299.5 -0.5,-0.5 Z"/></g>
<g><path style="opacity:1" fill="#f9f9f9" d="M 899.5,-0.5 C 906.167,-0.5 912.833,-0.5 919.5,-0.5C 919.5,299.5 919.5,599.5 919.5,899.5C 917.833,899.5 916.167,899.5 914.5,899.5C 914.5,894.5 914.5,889.5 914.5,884.5C 909.5,884.5 904.5,884.5 899.5,884.5C 899.5,879.5 899.5,874.5 899.5,869.5C 904.5,869.5 909.5,869.5 914.5,869.5C 914.5,864.5 914.5,859.5 914.5,854.5C 909.5,854.5 904.5,854.5 899.5,854.5C 899.5,849.5 899.5,844.5 899.5,839.5C 904.5,839.5 909.5,839.5 914.5,839.5C 914.5,834.5 914.5,829.5 914.5,824.5C 909.5,824.5 904.5,824.5 899.5,824.5C 899.5,819.5 899.5,814.5 899.5,809.5C 904.5,809.5 909.5,809.5 914.5,809.5C 914.5,804.5 914.5,799.5 914.5,794.5C 909.5,794.5 904.5,794.5 899.5,794.5C 899.5,789.5 899.5,784.5 899.5,779.5C 904.5,779.5 909.5,779.5 914.5,779.5C 914.5,774.5 914.5,769.5 914.5,764.5C 909.5,764.5 904.5,764.5 899.5,764.5C 899.5,759.5 899.5,754.5 899.5,749.5C 904.5,749.5 909.5,749.5 914.5,749.5C 914.5,744.5 914.5,739.5 914.5,734.5C 909.5,734.5 904.5,734.5 899.5,734.5C 899.5,729.5 899.5,724.5 899.5,719.5C 904.5,719.5 909.5,719.5 914.5,719.5C 914.5,714.5 914.5,709.5 914.5,704.5C 909.5,704.5 904.5,704.5 899.5,704.5C 899.5,699.5 899.5,694.5 899.5,689.5C 904.5,689.5 909.5,689.5 914.5,689.5C 914.5,684.5 914.5,679.5 914.5,674.5C 909.5,674.5 904.5,674.5 899.5,674.5C 899.5,669.5 899.5,664.5 899.5,659.5C 904.5,659.5 909.5,659.5 914.5,659.5C 914.5,654.5 914.5,649.5 914.5,644.5C 909.5,644.5 904.5,644.5 899.5,644.5C 899.5,639.5 899.5,634.5 899.5,629.5C 904.5,629.5 909.5,629.5 914.5,629.5C 914.5,624.5 914.5,619.5 914.5,614.5C 909.5,614.5 904.5,614.5 899.5,614.5C 899.5,609.5 899.5,604.5 899.5,599.5C 904.5,599.5 909.5,599.5 914.5,599.5C 914.5,594.5 914.5,589.5 914.5,584.5C 909.5,584.5 904.5,584.5 899.5,584.5C 899.5,579.5 899.5,574.5 899.5,569.5C 904.5,569.5 909.5,569.5 914.5,569.5C 914.5,564.5 914.5,559.5 914.5,554.5C 909.5,554.5 904.5,554.5 899.5,554.5C 899.5,549.5 899.5,544.5 899.5,539.5C 904.5,539.5 909.5,539.5 914.5,539.5C 914.5,534.5 914.5,529.5 914.5,524.5C 909.5,524.5 904.5,524.5 899.5,524.5C 899.5,519.5 899.5,514.5 899.5,509.5C 904.5,509.5 909.5,509.5 914.5,509.5C 914.5,504.5 914.5,499.5 914.5,494.5C 909.5,494.5 904.5,494.5 899.5,494.5C 899.5,489.5 899.5,484.5 899.5,479.5C 904.5,479.5 909.5,479.5 914.5,479.5C 914.5,474.5 914.5,469.5 914.5,464.5C 909.5,464.5 904.5,464.5 899.5,464.5C 899.5,459.5 899.5,454.5 899.5,449.5C 904.5,449.5 909.5,449.5 914.5,449.5C 914.5,444.5 914.5,439.5 914.5,434.5C 909.5,434.5 904.5,434.5 899.5,434.5C 899.5,429.5 899.5,424.5 899.5,419.5C 904.5,419.5 909.5,419.5 914.5,419.5C 914.5,414.5 914.5,409.5 914.5,404.5C 909.5,404.5 904.5,404.5 899.5,404.5C 899.5,399.5 899.5,394.5 899.5,389.5C 904.5,389.5 909.5,389.5 914.5,389.5C 914.5,384.5 914.5,379.5 914.5,374.5C 909.5,374.5 904.5,374.5 899.5,374.5C 899.5,369.5 899.5,364.5 899.5,359.5C 904.5,359.5 909.5,359.5 914.5,359.5C 914.5,354.5 914.5,349.5 914.5,344.5C 909.5,344.5 904.5,344.5 899.5,344.5C 899.5,339.5 899.5,334.5 899.5,329.5C 904.5,329.5 909.5,329.5 914.5,329.5C 914.5,324.5 914.5,319.5 914.5,314.5C 909.5,314.5 904.5,314.5 899.5,314.5C 899.5,309.5 899.5,304.5 899.5,299.5C 904.5,299.5 909.5,299.5 914.5,299.5C 914.5,294.5 914.5,289.5 914.5,284.5C 909.5,284.5 904.5,284.5 899.5,284.5C 899.5,279.5 899.5,274.5 899.5,269.5C 904.5,269.5 909.5,269.5 914.5,269.5C 914.5,264.5 914.5,259.5 914.5,254.5C 909.5,254.5 904.5,254.5 899.5,254.5C 899.5,249.5 899.5,244.5 899.5,239.5C 904.5,239.5 909.5,239.5 914.5,239.5C 914.5,234.5 914.5,229.5 914.5,224.5C 909.5,224.5 904.5,224.5 899.5,224.5C 899.5,219.5 899.5,214.5 899.5,209.5C 904.5,209.5 909.5,209.5 914.5,209.5C 914.5,204.5 914.5,199.5 914.5,194.5C 909.5,194.5 904.5,194.5 899.5,194.5C 899.5,189.5 899.5,184.5 899.5,179.5C 904.5,179.5 909.5,179.5 914.5,179.5C 914.5,174.5 914.5,169.5 914.5,164.5C 909.5,164.5 904.5,164.5 899.5,164.5C 899.5,159.5 899.5,154.5 899.5,149.5C 904.5,149.5 909.5,149.5 914.5,149.5C 914.5,144.5 914.5,139.5 914.5,134.5C 909.5,134.5 904.5,134.5 899.5,134.5C 899.5,129.5 899.5,124.5 899.5,119.5C 904.5,119.5 909.5,119.5 914.5,119.5C 914.5,114.5 914.5,109.5 914.5,104.5C 909.5,104.5 904.5,104.5 899.5,104.5C 899.5,99.5 899.5,94.5 899.5,89.5C 904.5,89.5 909.5,89.5 914.5,89.5C 914.5,84.5 914.5,79.5 914.5,74.5C 909.5,74.5 904.5,74.5 899.5,74.5C 899.5,69.5 899.5,64.5 899.5,59.5C 904.5,59.5 909.5,59.5 914.5,59.5C 914.5,54.5 914.5,49.5 914.5,44.5C 909.5,44.5 904.5,44.5 899.5,44.5C 899.5,39.5 899.5,34.5 899.5,29.5C 904.5,29.5 909.5,29.5 914.5,29.5C 914.5,24.5 914.5,19.5 914.5,14.5C 909.5,14.5 904.5,14.5 899.5,14.5C 899.5,9.5 899.5,4.5 899.5,-0.5 Z"/></g>
<g><path style="opacity:1" fill="#f8c41b" d="M 689.5,281.5 C 707.08,293.937 719.913,310.27 728,330.5C 732.072,339.882 735.239,349.549 737.5,359.5C 747.007,410.458 742.34,460.458 723.5,509.5C 718.787,519.258 713.787,528.924 708.5,538.5C 697.257,556.256 683.59,572.09 667.5,586C 659.649,591.697 651.982,597.53 644.5,603.5C 634.461,608.852 624.461,614.185 614.5,619.5C 604.237,623.917 593.904,627.917 583.5,631.5C 554.283,640.144 524.616,645.811 494.5,648.5C 463.358,648.858 432.025,648.358 400.5,647C 381.638,645.356 362.972,642.523 344.5,638.5C 324.189,633.285 304.522,626.285 285.5,617.5C 250.666,599.839 222.166,574.839 200,542.5C 188.263,525.293 181.263,506.293 179,485.5C 166.145,390.839 203.312,324.839 290.5,287.5C 288.14,283.437 285.807,279.437 283.5,275.5C 294.959,272.451 305.292,267.117 314.5,259.5C 319.325,253.863 322.325,247.363 323.5,240C 323.551,231.702 321.051,223.202 316,214.5C 310.58,207.333 305.913,199.667 302,191.5C 297.544,185.375 292.711,179.542 287.5,174C 284.806,171.653 281.806,169.82 278.5,168.5C 300.653,115.729 340.32,86.2291 397.5,80C 460.293,78.6554 505.793,106.155 534,162.5C 556.867,226.878 542.367,281.045 490.5,325C 520.613,337.184 551.613,342.518 583.5,341C 609.994,339.292 632.827,329.459 652,311.5C 657.805,303.394 663.972,295.561 670.5,288C 673.167,286 675.833,284 678.5,282C 682.123,280.282 685.789,280.116 689.5,281.5 Z"/></g>
<g><path style="opacity:1" fill="#1e2021" d="M 353.5,159.5 C 366.598,158.754 374.265,164.92 376.5,178C 376.79,185.582 374.624,193.416 370,201.5C 360.151,212.911 350.151,213.244 340,202.5C 334.88,190.844 335.547,179.511 342,168.5C 345.183,164.462 349.016,161.462 353.5,159.5 Z"/></g>
<g><path style="opacity:1" fill="#f6861e" d="M 278.5,168.5 C 281.806,169.82 284.806,171.653 287.5,174C 292.711,179.542 297.544,185.375 302,191.5C 305.913,199.667 310.58,207.333 316,214.5C 321.051,223.202 323.551,231.702 323.5,240C 322.325,247.363 319.325,253.863 314.5,259.5C 305.292,267.117 294.959,272.451 283.5,275.5C 276.226,272.726 269.559,268.893 263.5,264C 248.693,249.205 236.193,232.705 226,214.5C 220.052,202.822 216.218,190.489 214.5,177.5C 214.603,170.312 217.603,164.812 223.5,161C 232.187,160.5 239.854,163.167 246.5,169C 254.559,172.204 262.893,173.204 271.5,172C 274.174,171.33 276.507,170.163 278.5,168.5 Z"/></g>
<g><path style="opacity:1" fill="#f5f5f5" d="M 899.5,464.5 C 904.5,464.5 909.5,464.5 914.5,464.5C 914.5,469.5 914.5,474.5 914.5,479.5C 909.5,479.5 904.5,479.5 899.5,479.5C 899.5,484.5 899.5,489.5 899.5,494.5C 904.5,494.5 909.5,494.5 914.5,494.5C 914.5,499.5 914.5,504.5 914.5,509.5C 909.5,509.5 904.5,509.5 899.5,509.5C 894.5,509.5 889.5,509.5 884.5,509.5C 884.5,504.5 884.5,499.5 884.5,494.5C 879.5,494.5 874.5,494.5 869.5,494.5C 869.5,489.5 869.5,484.5 869.5,479.5C 864.5,479.5 859.5,479.5 854.5,479.5C 854.5,474.5 854.5,469.5 854.5,464.5C 849.5,464.5 844.5,464.5 839.5,464.5C 839.5,459.5 839.5,454.5 839.5,449.5C 834.5,449.5 829.5,449.5 824.5,449.5C 824.5,444.5 824.5,439.5 824.5,434.5C 819.5,434.5 814.5,434.5 809.5,434.5C 809.5,429.5 809.5,424.5 809.5,419.5C 804.5,419.5 799.5,419.5 794.5,419.5C 794.5,414.5 794.5,409.5 794.5,404.5C 789.5,404.5 784.5,404.5 779.5,404.5C 779.5,399.5 779.5,394.5 779.5,389.5C 774.5,389.5 769.5,389.5 764.5,389.5C 764.5,384.5 764.5,379.5 764.5,374.5C 759.5,374.5 754.5,374.5 749.5,374.5C 749.5,369.5 749.5,364.5 749.5,359.5C 745.5,359.5 741.5,359.5 737.5,359.5C 735.239,349.549 732.072,339.882 728,330.5C 719.913,310.27 707.08,293.937 689.5,281.5C 689.5,277.5 689.5,273.5 689.5,269.5C 694.5,269.5 699.5,269.5 704.5,269.5C 704.5,274.5 704.5,279.5 704.5,284.5C 709.5,284.5 714.5,284.5 719.5,284.5C 719.5,289.5 719.5,294.5 719.5,299.5C 724.5,299.5 729.5,299.5 734.5,299.5C 734.5,304.5 734.5,309.5 734.5,314.5C 739.5,314.5 744.5,314.5 749.5,314.5C 749.5,319.5 749.5,324.5 749.5,329.5C 754.5,329.5 759.5,329.5 764.5,329.5C 764.5,334.5 764.5,339.5 764.5,344.5C 769.5,344.5 774.5,344.5 779.5,344.5C 779.5,349.5 779.5,354.5 779.5,359.5C 784.5,359.5 789.5,359.5 794.5,359.5C 794.5,364.5 794.5,369.5 794.5,374.5C 799.5,374.5 804.5,374.5 809.5,374.5C 809.5,379.5 809.5,384.5 809.5,389.5C 814.5,389.5 819.5,389.5 824.5,389.5C 824.5,394.5 824.5,399.5 824.5,404.5C 829.5,404.5 834.5,404.5 839.5,404.5C 839.5,409.5 839.5,414.5 839.5,419.5C 844.5,419.5 849.5,419.5 854.5,419.5C 854.5,424.5 854.5,429.5 854.5,434.5C 859.5,434.5 864.5,434.5 869.5,434.5C 869.5,439.5 869.5,444.5 869.5,449.5C 874.5,449.5 879.5,449.5 884.5,449.5C 884.5,454.5 884.5,459.5 884.5,464.5C 889.5,464.5 894.5,464.5 899.5,464.5 Z"/></g>
<g><path style="opacity:1" fill="#f0f0f0" d="M 737.5,359.5 C 741.5,359.5 745.5,359.5 749.5,359.5C 749.5,364.5 749.5,369.5 749.5,374.5C 754.5,374.5 759.5,374.5 764.5,374.5C 764.5,379.5 764.5,384.5 764.5,389.5C 769.5,389.5 774.5,389.5 779.5,389.5C 779.5,394.5 779.5,399.5 779.5,404.5C 784.5,404.5 789.5,404.5 794.5,404.5C 794.5,409.5 794.5,414.5 794.5,419.5C 799.5,419.5 804.5,419.5 809.5,419.5C 809.5,424.5 809.5,429.5 809.5,434.5C 814.5,434.5 819.5,434.5 824.5,434.5C 824.5,439.5 824.5,444.5 824.5,449.5C 829.5,449.5 834.5,449.5 839.5,449.5C 839.5,454.5 839.5,459.5 839.5,464.5C 844.5,464.5 849.5,464.5 854.5,464.5C 854.5,469.5 854.5,474.5 854.5,479.5C 859.5,479.5 864.5,479.5 869.5,479.5C 869.5,484.5 869.5,489.5 869.5,494.5C 874.5,494.5 879.5,494.5 884.5,494.5C 884.5,499.5 884.5,504.5 884.5,509.5C 889.5,509.5 894.5,509.5 899.5,509.5C 899.5,514.5 899.5,519.5 899.5,524.5C 904.5,524.5 909.5,524.5 914.5,524.5C 914.5,529.5 914.5,534.5 914.5,539.5C 909.5,539.5 904.5,539.5 899.5,539.5C 899.5,544.5 899.5,549.5 899.5,554.5C 904.5,554.5 909.5,554.5 914.5,554.5C 914.5,559.5 914.5,564.5 914.5,569.5C 909.5,569.5 904.5,569.5 899.5,569.5C 899.5,574.5 899.5,579.5 899.5,584.5C 904.5,584.5 909.5,584.5 914.5,584.5C 914.5,589.5 914.5,594.5 914.5,599.5C 909.5,599.5 904.5,599.5 899.5,599.5C 899.5,604.5 899.5,609.5 899.5,614.5C 904.5,614.5 909.5,614.5 914.5,614.5C 914.5,619.5 914.5,624.5 914.5,629.5C 909.5,629.5 904.5,629.5 899.5,629.5C 899.5,634.5 899.5,639.5 899.5,644.5C 904.5,644.5 909.5,644.5 914.5,644.5C 914.5,649.5 914.5,654.5 914.5,659.5C 909.5,659.5 904.5,659.5 899.5,659.5C 899.5,664.5 899.5,669.5 899.5,674.5C 894.5,674.5 889.5,674.5 884.5,674.5C 884.5,669.5 884.5,664.5 884.5,659.5C 879.5,659.5 874.5,659.5 869.5,659.5C 869.5,654.5 869.5,649.5 869.5,644.5C 864.5,644.5 859.5,644.5 854.5,644.5C 854.5,639.5 854.5,634.5 854.5,629.5C 849.5,629.5 844.5,629.5 839.5,629.5C 839.5,624.5 839.5,619.5 839.5,614.5C 834.5,614.5 829.5,614.5 824.5,614.5C 824.5,609.5 824.5,604.5 824.5,599.5C 819.5,599.5 814.5,599.5 809.5,599.5C 809.5,594.5 809.5,589.5 809.5,584.5C 804.5,584.5 799.5,584.5 794.5,584.5C 794.5,579.5 794.5,574.5 794.5,569.5C 789.5,569.5 784.5,569.5 779.5,569.5C 779.5,564.5 779.5,559.5 779.5,554.5C 774.5,554.5 769.5,554.5 764.5,554.5C 764.5,549.5 764.5,544.5 764.5,539.5C 759.5,539.5 754.5,539.5 749.5,539.5C 749.5,534.5 749.5,529.5 749.5,524.5C 744.5,524.5 739.5,524.5 734.5,524.5C 734.5,519.5 734.5,514.5 734.5,509.5C 730.833,509.5 727.167,509.5 723.5,509.5C 742.34,460.458 747.007,410.458 737.5,359.5 Z"/></g>
<g><path style="opacity:1" fill="#f5f5f5" d="M 723.5,509.5 C 727.167,509.5 730.833,509.5 734.5,509.5C 734.5,514.5 734.5,519.5 734.5,524.5C 739.5,524.5 744.5,524.5 749.5,524.5C 749.5,529.5 749.5,534.5 749.5,539.5C 754.5,539.5 759.5,539.5 764.5,539.5C 764.5,544.5 764.5,549.5 764.5,554.5C 769.5,554.5 774.5,554.5 779.5,554.5C 779.5,559.5 779.5,564.5 779.5,569.5C 784.5,569.5 789.5,569.5 794.5,569.5C 794.5,574.5 794.5,579.5 794.5,584.5C 799.5,584.5 804.5,584.5 809.5,584.5C 809.5,589.5 809.5,594.5 809.5,599.5C 814.5,599.5 819.5,599.5 824.5,599.5C 824.5,604.5 824.5,609.5 824.5,614.5C 829.5,614.5 834.5,614.5 839.5,614.5C 839.5,619.5 839.5,624.5 839.5,629.5C 844.5,629.5 849.5,629.5 854.5,629.5C 854.5,634.5 854.5,639.5 854.5,644.5C 859.5,644.5 864.5,644.5 869.5,644.5C 869.5,649.5 869.5,654.5 869.5,659.5C 874.5,659.5 879.5,659.5 884.5,659.5C 884.5,664.5 884.5,669.5 884.5,674.5C 889.5,674.5 894.5,674.5 899.5,674.5C 904.5,674.5 909.5,674.5 914.5,674.5C 914.5,679.5 914.5,684.5 914.5,689.5C 909.5,689.5 904.5,689.5 899.5,689.5C 899.5,694.5 899.5,699.5 899.5,704.5C 904.5,704.5 909.5,704.5 914.5,704.5C 914.5,709.5 914.5,714.5 914.5,719.5C 909.5,719.5 904.5,719.5 899.5,719.5C 894.5,719.5 889.5,719.5 884.5,719.5C 884.5,714.5 884.5,709.5 884.5,704.5C 879.5,704.5 874.5,704.5 869.5,704.5C 869.5,699.5 869.5,694.5 869.5,689.5C 864.5,689.5 859.5,689.5 854.5,689.5C 854.5,684.5 854.5,679.5 854.5,674.5C 849.5,674.5 844.5,674.5 839.5,674.5C 839.5,669.5 839.5,664.5 839.5,659.5C 834.5,659.5 829.5,659.5 824.5,659.5C 824.5,654.5 824.5,649.5 824.5,644.5C 819.5,644.5 814.5,644.5 809.5,644.5C 809.5,639.5 809.5,634.5 809.5,629.5C 804.5,629.5 799.5,629.5 794.5,629.5C 794.5,624.5 794.5,619.5 794.5,614.5C 789.5,614.5 784.5,614.5 779.5,614.5C 779.5,609.5 779.5,604.5 779.5,599.5C 774.5,599.5 769.5,599.5 764.5,599.5C 764.5,594.5 764.5,589.5 764.5,584.5C 759.5,584.5 754.5,584.5 749.5,584.5C 749.5,579.5 749.5,574.5 749.5,569.5C 744.5,569.5 739.5,569.5 734.5,569.5C 734.5,564.5 734.5,559.5 734.5,554.5C 729.5,554.5 724.5,554.5 719.5,554.5C 719.5,549.5 719.5,544.5 719.5,539.5C 715.629,539.815 711.962,539.482 708.5,538.5C 713.787,528.924 718.787,519.258 723.5,509.5 Z"/></g>
<g><path style="opacity:1" fill="#f0f0f0" d="M 708.5,538.5 C 711.962,539.482 715.629,539.815 719.5,539.5C 719.5,544.5 719.5,549.5 719.5,554.5C 724.5,554.5 729.5,554.5 734.5,554.5C 734.5,559.5 734.5,564.5 734.5,569.5C 739.5,569.5 744.5,569.5 749.5,569.5C 749.5,574.5 749.5,579.5 749.5,584.5C 754.5,584.5 759.5,584.5 764.5,584.5C 764.5,589.5 764.5,594.5 764.5,599.5C 769.5,599.5 774.5,599.5 779.5,599.5C 779.5,604.5 779.5,609.5 779.5,614.5C 784.5,614.5 789.5,614.5 794.5,614.5C 794.5,619.5 794.5,624.5 794.5,629.5C 799.5,629.5 804.5,629.5 809.5,629.5C 809.5,634.5 809.5,639.5 809.5,644.5C 814.5,644.5 819.5,644.5 824.5,644.5C 824.5,649.5 824.5,654.5 824.5,659.5C 829.5,659.5 834.5,659.5 839.5,659.5C 839.5,664.5 839.5,669.5 839.5,674.5C 844.5,674.5 849.5,674.5 854.5,674.5C 854.5,679.5 854.5,684.5 854.5,689.5C 859.5,689.5 864.5,689.5 869.5,689.5C 869.5,694.5 869.5,699.5 869.5,704.5C 874.5,704.5 879.5,704.5 884.5,704.5C 884.5,709.5 884.5,714.5 884.5,719.5C 889.5,719.5 894.5,719.5 899.5,719.5C 899.5,724.5 899.5,729.5 899.5,734.5C 904.5,734.5 909.5,734.5 914.5,734.5C 914.5,739.5 914.5,744.5 914.5,749.5C 909.5,749.5 904.5,749.5 899.5,749.5C 899.5,754.5 899.5,759.5 899.5,764.5C 904.5,764.5 909.5,764.5 914.5,764.5C 914.5,769.5 914.5,774.5 914.5,779.5C 909.5,779.5 904.5,779.5 899.5,779.5C 899.5,784.5 899.5,789.5 899.5,794.5C 904.5,794.5 909.5,794.5 914.5,794.5C 914.5,799.5 914.5,804.5 914.5,809.5C 909.5,809.5 904.5,809.5 899.5,809.5C 899.5,814.5 899.5,819.5 899.5,824.5C 904.5,824.5 909.5,824.5 914.5,824.5C 914.5,829.5 914.5,834.5 914.5,839.5C 909.5,839.5 904.5,839.5 899.5,839.5C 899.5,844.5 899.5,849.5 899.5,854.5C 894.5,854.5 889.5,854.5 884.5,854.5C 884.5,849.5 884.5,844.5 884.5,839.5C 879.5,839.5 874.5,839.5 869.5,839.5C 869.5,834.5 869.5,829.5 869.5,824.5C 864.5,824.5 859.5,824.5 854.5,824.5C 854.5,819.5 854.5,814.5 854.5,809.5C 849.5,809.5 844.5,809.5 839.5,809.5C 839.5,804.5 839.5,799.5 839.5,794.5C 834.5,794.5 829.5,794.5 824.5,794.5C 824.5,789.5 824.5,784.5 824.5,779.5C 819.5,779.5 814.5,779.5 809.5,779.5C 809.5,774.5 809.5,769.5 809.5,764.5C 804.5,764.5 799.5,764.5 794.5,764.5C 794.5,759.5 794.5,754.5 794.5,749.5C 789.5,749.5 784.5,749.5 779.5,749.5C 779.5,744.5 779.5,739.5 779.5,734.5C 774.5,734.5 769.5,734.5 764.5,734.5C 764.5,729.5 764.5,724.5 764.5,719.5C 759.5,719.5 754.5,719.5 749.5,719.5C 749.5,714.5 749.5,709.5 749.5,704.5C 744.5,704.5 739.5,704.5 734.5,704.5C 734.5,699.5 734.5,694.5 734.5,689.5C 729.5,689.5 724.5,689.5 719.5,689.5C 719.5,684.5 719.5,679.5 719.5,674.5C 714.5,674.5 709.5,674.5 704.5,674.5C 704.5,669.5 704.5,664.5 704.5,659.5C 699.5,659.5 694.5,659.5 689.5,659.5C 689.5,654.5 689.5,649.5 689.5,644.5C 684.5,644.5 679.5,644.5 674.5,644.5C 674.5,639.5 674.5,634.5 674.5,629.5C 669.5,629.5 664.5,629.5 659.5,629.5C 659.5,624.5 659.5,619.5 659.5,614.5C 654.5,614.5 649.5,614.5 644.5,614.5C 644.5,610.833 644.5,607.167 644.5,603.5C 651.982,597.53 659.649,591.697 667.5,586C 683.59,572.09 697.257,556.256 708.5,538.5 Z"/></g>
<g><path style="opacity:1" fill="#f4f4f4" d="M 644.5,603.5 C 644.5,607.167 644.5,610.833 644.5,614.5C 649.5,614.5 654.5,614.5 659.5,614.5C 659.5,619.5 659.5,624.5 659.5,629.5C 664.5,629.5 669.5,629.5 674.5,629.5C 674.5,634.5 674.5,639.5 674.5,644.5C 679.5,644.5 684.5,644.5 689.5,644.5C 689.5,649.5 689.5,654.5 689.5,659.5C 694.5,659.5 699.5,659.5 704.5,659.5C 704.5,664.5 704.5,669.5 704.5,674.5C 709.5,674.5 714.5,674.5 719.5,674.5C 719.5,679.5 719.5,684.5 719.5,689.5C 724.5,689.5 729.5,689.5 734.5,689.5C 734.5,694.5 734.5,699.5 734.5,704.5C 739.5,704.5 744.5,704.5 749.5,704.5C 749.5,709.5 749.5,714.5 749.5,719.5C 754.5,719.5 759.5,719.5 764.5,719.5C 764.5,724.5 764.5,729.5 764.5,734.5C 769.5,734.5 774.5,734.5 779.5,734.5C 779.5,739.5 779.5,744.5 779.5,749.5C 784.5,749.5 789.5,749.5 794.5,749.5C 794.5,754.5 794.5,759.5 794.5,764.5C 799.5,764.5 804.5,764.5 809.5,764.5C 809.5,769.5 809.5,774.5 809.5,779.5C 814.5,779.5 819.5,779.5 824.5,779.5C 824.5,784.5 824.5,789.5 824.5,794.5C 829.5,794.5 834.5,794.5 839.5,794.5C 839.5,799.5 839.5,804.5 839.5,809.5C 844.5,809.5 849.5,809.5 854.5,809.5C 854.5,814.5 854.5,819.5 854.5,824.5C 859.5,824.5 864.5,824.5 869.5,824.5C 869.5,829.5 869.5,834.5 869.5,839.5C 874.5,839.5 879.5,839.5 884.5,839.5C 884.5,844.5 884.5,849.5 884.5,854.5C 889.5,854.5 894.5,854.5 899.5,854.5C 904.5,854.5 909.5,854.5 914.5,854.5C 914.5,859.5 914.5,864.5 914.5,869.5C 909.5,869.5 904.5,869.5 899.5,869.5C 899.5,874.5 899.5,879.5 899.5,884.5C 904.5,884.5 909.5,884.5 914.5,884.5C 914.5,889.5 914.5,894.5 914.5,899.5C 916.167,899.5 917.833,899.5 919.5,899.5C 919.5,906.167 919.5,912.833 919.5,919.5C 912.833,919.5 906.167,919.5 899.5,919.5C 899.5,917.833 899.5,916.167 899.5,914.5C 894.5,914.5 889.5,914.5 884.5,914.5C 884.5,909.5 884.5,904.5 884.5,899.5C 879.5,899.5 874.5,899.5 869.5,899.5C 869.5,904.5 869.5,909.5 869.5,914.5C 864.5,914.5 859.5,914.5 854.5,914.5C 854.5,909.5 854.5,904.5 854.5,899.5C 854.5,894.5 854.5,889.5 854.5,884.5C 849.5,884.5 844.5,884.5 839.5,884.5C 839.5,879.5 839.5,874.5 839.5,869.5C 834.5,869.5 829.5,869.5 824.5,869.5C 824.5,864.5 824.5,859.5 824.5,854.5C 819.5,854.5 814.5,854.5 809.5,854.5C 809.5,849.5 809.5,844.5 809.5,839.5C 804.5,839.5 799.5,839.5 794.5,839.5C 794.5,834.5 794.5,829.5 794.5,824.5C 789.5,824.5 784.5,824.5 779.5,824.5C 779.5,819.5 779.5,814.5 779.5,809.5C 774.5,809.5 769.5,809.5 764.5,809.5C 764.5,804.5 764.5,799.5 764.5,794.5C 759.5,794.5 754.5,794.5 749.5,794.5C 749.5,789.5 749.5,784.5 749.5,779.5C 744.5,779.5 739.5,779.5 734.5,779.5C 734.5,774.5 734.5,769.5 734.5,764.5C 729.5,764.5 724.5,764.5 719.5,764.5C 719.5,759.5 719.5,754.5 719.5,749.5C 714.821,749.334 710.155,749.501 705.5,750C 706.5,751 707.5,752 708.5,753C 708.272,753.399 707.938,753.565 707.5,753.5C 703.82,752.037 702.987,749.703 705,746.5C 710.738,740.27 716.238,733.936 721.5,727.5C 722.043,727.44 722.376,727.107 722.5,726.5C 721.675,725.614 720.675,725.281 719.5,725.5C 719.5,723.5 719.5,721.5 719.5,719.5C 714.5,719.5 709.5,719.5 704.5,719.5C 704.5,714.5 704.5,709.5 704.5,704.5C 699.5,704.5 694.5,704.5 689.5,704.5C 689.5,699.5 689.5,694.5 689.5,689.5C 684.5,689.5 679.5,689.5 674.5,689.5C 674.5,684.5 674.5,679.5 674.5,674.5C 669.5,674.5 664.5,674.5 659.5,674.5C 659.5,669.5 659.5,664.5 659.5,659.5C 654.5,659.5 649.5,659.5 644.5,659.5C 644.5,654.5 644.5,649.5 644.5,644.5C 639.5,644.5 634.5,644.5 629.5,644.5C 629.5,639.5 629.5,634.5 629.5,629.5C 624.5,629.5 619.5,629.5 614.5,629.5C 614.5,626.167 614.5,622.833 614.5,619.5C 624.461,614.185 634.461,608.852 644.5,603.5 Z"/></g>
<g><path style="opacity:1" fill="#f5f5f5" d="M 583.5,631.5 C 584.485,635.634 584.818,639.968 584.5,644.5C 589.5,644.5 594.5,644.5 599.5,644.5C 599.5,649.5 599.5,654.5 599.5,659.5C 604.5,659.5 609.5,659.5 614.5,659.5C 614.5,664.5 614.5,669.5 614.5,674.5C 619.5,674.5 624.5,674.5 629.5,674.5C 629.5,679.5 629.5,684.5 629.5,689.5C 634.5,689.5 639.5,689.5 644.5,689.5C 644.5,694.5 644.5,699.5 644.5,704.5C 639.5,704.5 634.5,704.5 629.5,704.5C 629.5,709.5 629.5,714.5 629.5,719.5C 624.5,719.5 619.5,719.5 614.5,719.5C 614.5,724.5 614.5,729.5 614.5,734.5C 609.5,734.5 604.5,734.5 599.5,734.5C 599.5,729.5 599.5,724.5 599.5,719.5C 594.5,719.5 589.5,719.5 584.5,719.5C 584.5,724.5 584.5,729.5 584.5,734.5C 579.5,734.5 574.5,734.5 569.5,734.5C 569.5,729.5 569.5,724.5 569.5,719.5C 564.5,719.5 559.5,719.5 554.5,719.5C 554.5,714.5 554.5,709.5 554.5,704.5C 549.5,704.5 544.5,704.5 539.5,704.5C 539.5,699.5 539.5,694.5 539.5,689.5C 534.5,689.5 529.5,689.5 524.5,689.5C 524.5,684.5 524.5,679.5 524.5,674.5C 519.5,674.5 514.5,674.5 509.5,674.5C 509.5,669.5 509.5,664.5 509.5,659.5C 504.5,659.5 499.5,659.5 494.5,659.5C 494.5,655.833 494.5,652.167 494.5,648.5C 524.616,645.811 554.283,640.144 583.5,631.5 Z"/></g>
<g><path style="opacity:1" fill="#e8e8e8" d="M 208.5,748.5 C 213.231,740.929 218.564,733.762 224.5,727C 220.5,726.333 216.5,726.333 212.5,727C 208.994,731.999 205.327,736.833 201.5,741.5C 197.673,736.833 194.006,731.999 190.5,727C 186.5,726.333 182.5,726.333 178.5,727C 184.333,734.833 190.167,742.667 196,750.5C 196.5,758.827 196.666,767.16 196.5,775.5C 195.001,767.045 194.335,758.378 194.5,749.5C 189.5,749.5 184.5,749.5 179.5,749.5C 179.5,744.5 179.5,739.5 179.5,734.5C 174.5,734.5 169.5,734.5 164.5,734.5C 164.5,729.5 164.5,724.5 164.5,719.5C 169.5,719.5 174.5,719.5 179.5,719.5C 179.5,714.5 179.5,709.5 179.5,704.5C 184.5,704.5 189.5,704.5 194.5,704.5C 194.5,709.5 194.5,714.5 194.5,719.5C 199.5,719.5 204.5,719.5 209.5,719.5C 209.5,714.5 209.5,709.5 209.5,704.5C 214.5,704.5 219.5,704.5 224.5,704.5C 224.5,709.5 224.5,714.5 224.5,719.5C 229.5,719.5 234.5,719.5 239.5,719.5C 239.5,724.5 239.5,729.5 239.5,734.5C 234.5,734.5 229.5,734.5 224.5,734.5C 224.5,739.5 224.5,744.5 224.5,749.5C 219.105,749.733 213.772,749.4 208.5,748.5 Z"/></g>
<g><path style="opacity:1" fill="#070c10" d="M 208.5,748.5 C 207.778,748.918 207.278,749.584 207,750.5C 206.5,758.827 206.334,767.16 206.5,775.5C 203.167,775.5 199.833,775.5 196.5,775.5C 196.666,767.16 196.5,758.827 196,750.5C 190.167,742.667 184.333,734.833 178.5,727C 182.5,726.333 186.5,726.333 190.5,727C 194.006,731.999 197.673,736.833 201.5,741.5C 205.327,736.833 208.994,731.999 212.5,727C 216.5,726.333 220.5,726.333 224.5,727C 218.564,733.762 213.231,740.929 208.5,748.5 Z"/></g>
<g><path style="opacity:1" fill="#0a0e11" d="M 245.5,726.5 C 257.5,726.5 269.5,726.5 281.5,726.5C 281.5,729.5 281.5,732.5 281.5,735.5C 272.833,735.5 264.167,735.5 255.5,735.5C 255.5,738.833 255.5,742.167 255.5,745.5C 261.833,745.5 268.167,745.5 274.5,745.5C 274.5,748.833 274.5,752.167 274.5,755.5C 268.167,755.5 261.833,755.5 255.5,755.5C 255.185,759.371 255.518,763.038 256.5,766.5C 264.833,766.5 273.167,766.5 281.5,766.5C 281.5,769.5 281.5,772.5 281.5,775.5C 269.5,775.5 257.5,775.5 245.5,775.5C 245.5,759.167 245.5,742.833 245.5,726.5 Z"/></g>
<g><path style="opacity:1" fill="#04090e" d="M 315.5,766.5 C 315.833,766.5 316.167,766.5 316.5,766.5C 324.833,766.5 333.167,766.5 341.5,766.5C 341.5,769.5 341.5,772.5 341.5,775.5C 329.5,775.5 317.5,775.5 305.5,775.5C 305.5,759.167 305.5,742.833 305.5,726.5C 308.5,726.5 311.5,726.5 314.5,726.5C 314.171,740.01 314.504,753.344 315.5,766.5 Z"/></g>
<g><path style="opacity:1" fill="#0c0f13" d="M 694.5,726.5 C 694.17,732.868 694.504,739.202 695.5,745.5C 696.298,745.043 696.631,744.376 696.5,743.5C 701.267,738.164 705.934,732.664 710.5,727C 714.358,726.19 718.024,726.357 721.5,727.5C 716.238,733.936 710.738,740.27 705,746.5C 702.987,749.703 703.82,752.037 707.5,753.5C 713.255,760.655 719.255,767.655 725.5,774.5C 721.167,775.833 716.833,775.833 712.5,774.5C 707.175,767.843 701.509,761.51 695.5,755.5C 694.503,762.134 694.17,768.8 694.5,775.5C 691.167,775.5 687.833,775.5 684.5,775.5C 684.5,759.167 684.5,742.833 684.5,726.5C 687.833,726.5 691.167,726.5 694.5,726.5 Z"/></g>
<g><path style="opacity:1" fill="#979797" d="M 694.5,726.5 C 695.167,732.167 695.833,737.833 696.5,743.5C 696.631,744.376 696.298,745.043 695.5,745.5C 694.504,739.202 694.17,732.868 694.5,726.5 Z"/></g>
<g><path style="opacity:1" fill="#818180" d="M 315.5,726.5 C 315.5,739.833 315.5,753.167 315.5,766.5C 314.504,753.344 314.171,740.01 314.5,726.5C 311.5,726.5 308.5,726.5 305.5,726.5C 305.5,742.833 305.5,759.167 305.5,775.5C 304.518,772.038 304.185,768.371 304.5,764.5C 304.5,751.5 304.5,738.5 304.5,725.5C 308.371,725.185 312.038,725.518 315.5,726.5 Z"/></g>
<g><path style="opacity:1" fill="#eeeeee" d="M 245.5,726.5 C 245.5,742.833 245.5,759.167 245.5,775.5C 257.5,775.5 269.5,775.5 281.5,775.5C 281.5,772.5 281.5,769.5 281.5,766.5C 273.167,766.5 264.833,766.5 256.5,766.5C 265.682,765.724 275.015,765.058 284.5,764.5C 284.5,769.5 284.5,774.5 284.5,779.5C 289.5,779.5 294.5,779.5 299.5,779.5C 299.5,774.5 299.5,769.5 299.5,764.5C 301.167,764.5 302.833,764.5 304.5,764.5C 304.185,768.371 304.518,772.038 305.5,775.5C 317.5,775.5 329.5,775.5 341.5,775.5C 341.5,772.5 341.5,769.5 341.5,766.5C 333.167,766.5 324.833,766.5 316.5,766.5C 325.682,765.724 335.015,765.058 344.5,764.5C 344.5,769.5 344.5,774.5 344.5,779.5C 339.5,779.5 334.5,779.5 329.5,779.5C 329.5,784.5 329.5,789.5 329.5,794.5C 334.5,794.5 339.5,794.5 344.5,794.5C 344.5,799.5 344.5,804.5 344.5,809.5C 349.5,809.5 354.5,809.5 359.5,809.5C 359.5,814.5 359.5,819.5 359.5,824.5C 364.5,824.5 369.5,824.5 374.5,824.5C 374.5,829.5 374.5,834.5 374.5,839.5C 379.518,839.613 384.518,839.947 389.5,840.5C 389.5,845.167 389.5,849.833 389.5,854.5C 394.5,854.5 399.5,854.5 404.5,854.5C 404.5,859.5 404.5,864.5 404.5,869.5C 409.5,869.5 414.5,869.5 419.5,869.5C 419.5,874.5 419.5,879.5 419.5,884.5C 424.5,884.5 429.5,884.5 434.5,884.5C 434.5,889.5 434.5,894.5 434.5,899.5C 429.5,899.5 424.5,899.5 419.5,899.5C 419.5,904.5 419.5,909.5 419.5,914.5C 414.5,914.5 409.5,914.5 404.5,914.5C 404.5,909.5 404.5,904.5 404.5,899.5C 399.5,899.5 394.5,899.5 389.5,899.5C 389.5,904.5 389.5,909.5 389.5,914.5C 384.5,914.5 379.5,914.5 374.5,914.5C 374.5,909.5 374.5,904.5 374.5,899.5C 369.5,899.5 364.5,899.5 359.5,899.5C 359.5,904.5 359.5,909.5 359.5,914.5C 354.5,914.5 349.5,914.5 344.5,914.5C 344.5,909.5 344.5,904.5 344.5,899.5C 339.5,899.5 334.5,899.5 329.5,899.5C 329.5,894.5 329.5,889.5 329.5,884.5C 324.5,884.5 319.5,884.5 314.5,884.5C 314.5,879.5 314.5,874.5 314.5,869.5C 309.5,869.5 304.5,869.5 299.5,869.5C 299.5,864.5 299.5,859.5 299.5,854.5C 294.5,854.5 289.5,854.5 284.5,854.5C 284.5,849.5 284.5,844.5 284.5,839.5C 287.139,837.691 289.306,835.358 291,832.5C 292.922,822.319 288.755,817.319 278.5,817.5C 280.265,816.539 282.265,816.205 284.5,816.5C 284.5,814.167 284.5,811.833 284.5,809.5C 279.5,809.5 274.5,809.5 269.5,809.5C 269.5,804.5 269.5,799.5 269.5,794.5C 264.5,794.5 259.5,794.5 254.5,794.5C 254.5,789.5 254.5,784.5 254.5,779.5C 249.5,779.5 244.5,779.5 239.5,779.5C 239.5,774.5 239.5,769.5 239.5,764.5C 241.167,764.5 242.833,764.5 244.5,764.5C 244.171,751.656 244.505,738.989 245.5,726.5 Z"/></g>
<g><path style="opacity:1" fill="#f4f4f5" d="M 285.5,617.5 C 304.522,626.285 324.189,633.285 344.5,638.5C 344.5,640.5 344.5,642.5 344.5,644.5C 349.5,644.5 354.5,644.5 359.5,644.5C 359.5,649.5 359.5,654.5 359.5,659.5C 364.5,659.5 369.5,659.5 374.5,659.5C 374.5,664.5 374.5,669.5 374.5,674.5C 379.5,674.5 384.5,674.5 389.5,674.5C 389.5,679.5 389.5,684.5 389.5,689.5C 394.5,689.5 399.5,689.5 404.5,689.5C 404.5,694.5 404.5,699.5 404.5,704.5C 409.5,704.5 414.5,704.5 419.5,704.5C 419.5,709.5 419.5,714.5 419.5,719.5C 424.5,719.5 429.5,719.5 434.5,719.5C 434.5,714.5 434.5,709.5 434.5,704.5C 439.5,704.5 444.5,704.5 449.5,704.5C 449.5,709.5 449.5,714.5 449.5,719.5C 454.5,719.5 459.5,719.5 464.5,719.5C 464.5,724.5 464.5,729.5 464.5,734.5C 469.5,734.5 474.5,734.5 479.5,734.5C 479.5,729.5 479.5,724.5 479.5,719.5C 484.5,719.5 489.5,719.5 494.5,719.5C 494.5,721.5 494.5,723.5 494.5,725.5C 492.265,725.205 490.265,725.539 488.5,726.5C 487.669,742.328 487.169,758.328 487,774.5C 486.502,771.183 486.335,767.85 486.5,764.5C 484.167,764.5 481.833,764.5 479.5,764.5C 479.5,769.5 479.5,774.5 479.5,779.5C 474.5,779.5 469.5,779.5 464.5,779.5C 464.774,774.737 464.441,770.07 463.5,765.5C 471.638,749.423 467.971,736.923 452.5,728C 435.408,723.17 424.075,729.003 418.5,745.5C 417.566,746.568 417.232,747.901 417.5,749.5C 413.167,749.5 408.833,749.5 404.5,749.5C 404.5,754.5 404.5,759.5 404.5,764.5C 409.5,764.5 414.5,764.5 419.5,764.5C 419.5,769.5 419.5,774.5 419.5,779.5C 424.5,779.5 429.5,779.5 434.5,779.5C 434.5,784.5 434.5,789.5 434.5,794.5C 429.5,794.5 424.5,794.5 419.5,794.5C 419.5,799.5 419.5,804.5 419.5,809.5C 414.5,809.5 409.5,809.5 404.5,809.5C 404.5,814.5 404.5,819.5 404.5,824.5C 409.5,824.5 414.5,824.5 419.5,824.5C 419.5,829.5 419.5,834.5 419.5,839.5C 421.415,839.784 423.081,839.451 424.5,838.5C 424.833,837.833 425.167,837.167 425.5,836.5C 426.404,837.209 426.737,838.209 426.5,839.5C 429.167,839.5 431.833,839.5 434.5,839.5C 434.5,844.5 434.5,849.5 434.5,854.5C 439.5,854.5 444.5,854.5 449.5,854.5C 449.5,859.5 449.5,864.5 449.5,869.5C 454.5,869.5 459.5,869.5 464.5,869.5C 464.5,874.5 464.5,879.5 464.5,884.5C 469.5,884.5 474.5,884.5 479.5,884.5C 479.5,889.5 479.5,894.5 479.5,899.5C 479.5,904.5 479.5,909.5 479.5,914.5C 474.5,914.5 469.5,914.5 464.5,914.5C 464.5,909.5 464.5,904.5 464.5,899.5C 459.5,899.5 454.5,899.5 449.5,899.5C 449.5,904.5 449.5,909.5 449.5,914.5C 444.5,914.5 439.5,914.5 434.5,914.5C 434.5,909.5 434.5,904.5 434.5,899.5C 434.5,894.5 434.5,889.5 434.5,884.5C 429.5,884.5 424.5,884.5 419.5,884.5C 419.5,879.5 419.5,874.5 419.5,869.5C 414.5,869.5 409.5,869.5 404.5,869.5C 404.5,864.5 404.5,859.5 404.5,854.5C 399.5,854.5 394.5,854.5 389.5,854.5C 389.5,849.833 389.5,845.167 389.5,840.5C 384.518,839.947 379.518,839.613 374.5,839.5C 374.5,834.5 374.5,829.5 374.5,824.5C 369.5,824.5 364.5,824.5 359.5,824.5C 359.5,819.5 359.5,814.5 359.5,809.5C 354.5,809.5 349.5,809.5 344.5,809.5C 344.5,804.5 344.5,799.5 344.5,794.5C 339.5,794.5 334.5,794.5 329.5,794.5C 329.5,789.5 329.5,784.5 329.5,779.5C 334.5,779.5 339.5,779.5 344.5,779.5C 344.5,774.5 344.5,769.5 344.5,764.5C 335.015,765.058 325.682,765.724 316.5,766.5C 316.167,766.5 315.833,766.5 315.5,766.5C 315.5,753.167 315.5,739.833 315.5,726.5C 316.473,728.948 316.806,731.615 316.5,734.5C 320.833,734.5 325.167,734.5 329.5,734.5C 329.5,739.5 329.5,744.5 329.5,749.5C 334.5,749.5 339.5,749.5 344.5,749.5C 344.5,744.5 344.5,739.5 344.5,734.5C 349.5,734.5 354.5,734.5 359.5,734.5C 359.5,729.5 359.5,724.5 359.5,719.5C 364.5,719.5 369.5,719.5 374.5,719.5C 374.5,714.5 374.5,709.5 374.5,704.5C 369.5,704.5 364.5,704.5 359.5,704.5C 359.5,699.5 359.5,694.5 359.5,689.5C 354.5,689.5 349.5,689.5 344.5,689.5C 344.5,684.5 344.5,679.5 344.5,674.5C 339.5,674.5 334.5,674.5 329.5,674.5C 329.5,669.5 329.5,664.5 329.5,659.5C 324.5,659.5 319.5,659.5 314.5,659.5C 314.5,654.5 314.5,649.5 314.5,644.5C 309.5,644.5 304.5,644.5 299.5,644.5C 299.5,639.5 299.5,634.5 299.5,629.5C 294.5,629.5 289.5,629.5 284.5,629.5C 284.183,625.298 284.517,621.298 285.5,617.5 Z"/></g>
<g><path style="opacity:1" fill="#0a0e11" d="M 463.5,765.5 C 452.972,776.309 440.972,778.143 427.5,771C 419.65,764.288 416.65,755.788 418.5,745.5C 424.075,729.003 435.408,723.17 452.5,728C 467.971,736.923 471.638,749.423 463.5,765.5 Z"/></g>
<g><path style="opacity:1" fill="#f0f0f0" d="M 437.5,735.5 C 452.425,734.593 458.925,741.593 457,756.5C 452.752,765.54 445.918,768.374 436.5,765C 428.84,760.242 426.34,753.408 429,744.5C 431.362,740.973 434.196,737.973 437.5,735.5 Z"/></g>
<g><path style="opacity:1" fill="#0a0e12" d="M 372.5,726.5 C 372.5,739.833 372.5,753.167 372.5,766.5C 381.167,766.5 389.833,766.5 398.5,766.5C 398.5,769.5 398.5,772.5 398.5,775.5C 386.5,775.5 374.5,775.5 362.5,775.5C 362.5,771.833 362.5,768.167 362.5,764.5C 362.5,751.833 362.5,739.167 362.5,726.5C 365.833,726.5 369.167,726.5 372.5,726.5 Z"/></g>
<g><path style="opacity:1" fill="#e2e2e2" d="M 372.5,726.5 C 373.495,739.323 373.829,752.323 373.5,765.5C 383.857,765.672 394.19,765.339 404.5,764.5C 404.5,769.5 404.5,774.5 404.5,779.5C 399.5,779.5 394.5,779.5 389.5,779.5C 389.5,784.5 389.5,789.5 389.5,794.5C 384.5,794.5 379.5,794.5 374.5,794.5C 374.5,789.5 374.5,784.5 374.5,779.5C 369.5,779.5 364.5,779.5 359.5,779.5C 359.5,774.5 359.5,769.5 359.5,764.5C 360.5,764.5 361.5,764.5 362.5,764.5C 362.5,768.167 362.5,771.833 362.5,775.5C 374.5,775.5 386.5,775.5 398.5,775.5C 398.5,772.5 398.5,769.5 398.5,766.5C 389.833,766.5 381.167,766.5 372.5,766.5C 372.5,753.167 372.5,739.833 372.5,726.5 Z"/></g>
<g><path style="opacity:1" fill="#efefef" d="M 614.5,619.5 C 614.5,622.833 614.5,626.167 614.5,629.5C 619.5,629.5 624.5,629.5 629.5,629.5C 629.5,634.5 629.5,639.5 629.5,644.5C 634.5,644.5 639.5,644.5 644.5,644.5C 644.5,649.5 644.5,654.5 644.5,659.5C 649.5,659.5 654.5,659.5 659.5,659.5C 659.5,664.5 659.5,669.5 659.5,674.5C 664.5,674.5 669.5,674.5 674.5,674.5C 674.5,679.5 674.5,684.5 674.5,689.5C 679.5,689.5 684.5,689.5 689.5,689.5C 689.5,694.5 689.5,699.5 689.5,704.5C 694.5,704.5 699.5,704.5 704.5,704.5C 704.5,709.5 704.5,714.5 704.5,719.5C 709.5,719.5 714.5,719.5 719.5,719.5C 719.5,721.5 719.5,723.5 719.5,725.5C 720.675,725.281 721.675,725.614 722.5,726.5C 722.376,727.107 722.043,727.44 721.5,727.5C 718.024,726.357 714.358,726.19 710.5,727C 705.934,732.664 701.267,738.164 696.5,743.5C 695.833,737.833 695.167,732.167 694.5,726.5C 691.167,726.5 687.833,726.5 684.5,726.5C 684.5,742.833 684.5,759.167 684.5,775.5C 687.833,775.5 691.167,775.5 694.5,775.5C 694.17,768.8 694.503,762.134 695.5,755.5C 701.509,761.51 707.175,767.843 712.5,774.5C 716.833,775.833 721.167,775.833 725.5,774.5C 719.255,767.655 713.255,760.655 707.5,753.5C 707.938,753.565 708.272,753.399 708.5,753C 707.5,752 706.5,751 705.5,750C 710.155,749.501 714.821,749.334 719.5,749.5C 719.5,754.5 719.5,759.5 719.5,764.5C 724.5,764.5 729.5,764.5 734.5,764.5C 734.5,769.5 734.5,774.5 734.5,779.5C 739.5,779.5 744.5,779.5 749.5,779.5C 749.5,784.5 749.5,789.5 749.5,794.5C 754.5,794.5 759.5,794.5 764.5,794.5C 764.5,799.5 764.5,804.5 764.5,809.5C 769.5,809.5 774.5,809.5 779.5,809.5C 779.5,814.5 779.5,819.5 779.5,824.5C 784.5,824.5 789.5,824.5 794.5,824.5C 794.5,829.5 794.5,834.5 794.5,839.5C 799.5,839.5 804.5,839.5 809.5,839.5C 809.5,844.5 809.5,849.5 809.5,854.5C 814.5,854.5 819.5,854.5 824.5,854.5C 824.5,859.5 824.5,864.5 824.5,869.5C 829.5,869.5 834.5,869.5 839.5,869.5C 839.5,874.5 839.5,879.5 839.5,884.5C 844.5,884.5 849.5,884.5 854.5,884.5C 854.5,889.5 854.5,894.5 854.5,899.5C 849.5,899.5 844.5,899.5 839.5,899.5C 839.5,904.5 839.5,909.5 839.5,914.5C 834.5,914.5 829.5,914.5 824.5,914.5C 824.5,909.5 824.5,904.5 824.5,899.5C 819.5,899.5 814.5,899.5 809.5,899.5C 809.5,904.5 809.5,909.5 809.5,914.5C 804.5,914.5 799.5,914.5 794.5,914.5C 794.5,909.5 794.5,904.5 794.5,899.5C 789.5,899.5 784.5,899.5 779.5,899.5C 779.5,894.5 779.5,889.5 779.5,884.5C 774.5,884.5 769.5,884.5 764.5,884.5C 764.5,879.5 764.5,874.5 764.5,869.5C 759.5,869.5 754.5,869.5 749.5,869.5C 749.5,864.5 749.5,859.5 749.5,854.5C 744.5,854.5 739.5,854.5 734.5,854.5C 734.5,849.5 734.5,844.5 734.5,839.5C 729.5,839.5 724.5,839.5 719.5,839.5C 719.5,834.5 719.5,829.5 719.5,824.5C 714.5,824.5 709.5,824.5 704.5,824.5C 704.5,826.5 704.5,828.5 704.5,830.5C 700.102,828.275 695.602,826.275 691,824.5C 690.162,820.874 691.662,819.207 695.5,819.5C 698.659,819.662 701.159,820.995 703,823.5C 703.5,823.167 704,822.833 704.5,822.5C 701.068,817.695 696.401,816.195 690.5,818C 688.081,819.509 687.081,821.675 687.5,824.5C 683.167,824.5 678.833,824.5 674.5,824.5C 674.5,829.5 674.5,834.5 674.5,839.5C 679.5,839.5 684.5,839.5 689.5,839.5C 689.5,844.5 689.5,849.5 689.5,854.5C 694.5,854.5 699.5,854.5 704.5,854.5C 704.5,859.5 704.5,864.5 704.5,869.5C 709.5,869.5 714.5,869.5 719.5,869.5C 719.5,874.5 719.5,879.5 719.5,884.5C 724.5,884.5 729.5,884.5 734.5,884.5C 734.5,889.5 734.5,894.5 734.5,899.5C 729.5,899.5 724.5,899.5 719.5,899.5C 719.5,904.5 719.5,909.5 719.5,914.5C 714.5,914.5 709.5,914.5 704.5,914.5C 704.5,909.5 704.5,904.5 704.5,899.5C 699.5,899.5 694.5,899.5 689.5,899.5C 689.5,904.5 689.5,909.5 689.5,914.5C 684.5,914.5 679.5,914.5 674.5,914.5C 674.5,909.5 674.5,904.5 674.5,899.5C 669.5,899.5 664.5,899.5 659.5,899.5C 659.5,904.5 659.5,909.5 659.5,914.5C 654.5,914.5 649.5,914.5 644.5,914.5C 644.5,909.5 644.5,904.5 644.5,899.5C 639.5,899.5 634.5,899.5 629.5,899.5C 629.5,904.5 629.5,909.5 629.5,914.5C 624.5,914.5 619.5,914.5 614.5,914.5C 614.5,909.5 614.5,904.5 614.5,899.5C 609.5,899.5 604.5,899.5 599.5,899.5C 599.5,904.5 599.5,909.5 599.5,914.5C 594.5,914.5 589.5,914.5 584.5,914.5C 584.5,909.5 584.5,904.5 584.5,899.5C 579.5,899.5 574.5,899.5 569.5,899.5C 569.5,904.5 569.5,909.5 569.5,914.5C 564.5,914.5 559.5,914.5 554.5,914.5C 554.5,909.5 554.5,904.5 554.5,899.5C 549.5,899.5 544.5,899.5 539.5,899.5C 539.5,904.5 539.5,909.5 539.5,914.5C 534.5,914.5 529.5,914.5 524.5,914.5C 524.5,909.5 524.5,904.5 524.5,899.5C 519.5,899.5 514.5,899.5 509.5,899.5C 509.5,904.5 509.5,909.5 509.5,914.5C 504.5,914.5 499.5,914.5 494.5,914.5C 494.5,909.5 494.5,904.5 494.5,899.5C 489.5,899.5 484.5,899.5 479.5,899.5C 479.5,894.5 479.5,889.5 479.5,884.5C 474.5,884.5 469.5,884.5 464.5,884.5C 464.5,879.5 464.5,874.5 464.5,869.5C 459.5,869.5 454.5,869.5 449.5,869.5C 449.5,864.5 449.5,859.5 449.5,854.5C 444.5,854.5 439.5,854.5 434.5,854.5C 434.5,849.5 434.5,844.5 434.5,839.5C 431.833,839.5 429.167,839.5 426.5,839.5C 426.737,838.209 426.404,837.209 425.5,836.5C 425.539,835.417 425.873,834.417 426.5,833.5C 430.122,832.341 433.789,832.175 437.5,833C 438.26,834.441 438.926,835.941 439.5,837.5C 440.5,838.833 441.5,838.833 442.5,837.5C 439.902,831.541 437.402,825.541 435,819.5C 433.604,817.473 431.938,817.14 430,818.5C 427.491,824.7 424.991,830.867 422.5,837C 422.836,838.03 423.503,838.53 424.5,838.5C 423.081,839.451 421.415,839.784 419.5,839.5C 419.5,834.5 419.5,829.5 419.5,824.5C 414.5,824.5 409.5,824.5 404.5,824.5C 404.5,819.5 404.5,814.5 404.5,809.5C 409.5,809.5 414.5,809.5 419.5,809.5C 419.5,804.5 419.5,799.5 419.5,794.5C 424.5,794.5 429.5,794.5 434.5,794.5C 434.5,789.5 434.5,784.5 434.5,779.5C 429.5,779.5 424.5,779.5 419.5,779.5C 419.5,774.5 419.5,769.5 419.5,764.5C 414.5,764.5 409.5,764.5 404.5,764.5C 404.5,759.5 404.5,754.5 404.5,749.5C 408.833,749.5 413.167,749.5 417.5,749.5C 417.232,747.901 417.566,746.568 418.5,745.5C 416.65,755.788 419.65,764.288 427.5,771C 440.972,778.143 452.972,776.309 463.5,765.5C 464.441,770.07 464.774,774.737 464.5,779.5C 469.5,779.5 474.5,779.5 479.5,779.5C 479.5,774.5 479.5,769.5 479.5,764.5C 481.833,764.5 484.167,764.5 486.5,764.5C 486.335,767.85 486.502,771.183 487,774.5C 487.169,758.328 487.669,742.328 488.5,726.5C 490.265,725.539 492.265,725.205 494.5,725.5C 494.5,723.5 494.5,721.5 494.5,719.5C 489.5,719.5 484.5,719.5 479.5,719.5C 479.5,724.5 479.5,729.5 479.5,734.5C 474.5,734.5 469.5,734.5 464.5,734.5C 464.5,729.5 464.5,724.5 464.5,719.5C 459.5,719.5 454.5,719.5 449.5,719.5C 449.5,714.5 449.5,709.5 449.5,704.5C 444.5,704.5 439.5,704.5 434.5,704.5C 434.5,709.5 434.5,714.5 434.5,719.5C 429.5,719.5 424.5,719.5 419.5,719.5C 419.5,714.5 419.5,709.5 419.5,704.5C 414.5,704.5 409.5,704.5 404.5,704.5C 404.5,699.5 404.5,694.5 404.5,689.5C 399.5,689.5 394.5,689.5 389.5,689.5C 389.5,684.5 389.5,679.5 389.5,674.5C 384.5,674.5 379.5,674.5 374.5,674.5C 374.5,669.5 374.5,664.5 374.5,659.5C 369.5,659.5 364.5,659.5 359.5,659.5C 359.5,654.5 359.5,649.5 359.5,644.5C 354.5,644.5 349.5,644.5 344.5,644.5C 344.5,642.5 344.5,640.5 344.5,638.5C 362.972,642.523 381.638,645.356 400.5,647C 432.025,648.358 463.358,648.858 494.5,648.5C 494.5,652.167 494.5,655.833 494.5,659.5C 499.5,659.5 504.5,659.5 509.5,659.5C 509.5,664.5 509.5,669.5 509.5,674.5C 514.5,674.5 519.5,674.5 524.5,674.5C 524.5,679.5 524.5,684.5 524.5,689.5C 529.5,689.5 534.5,689.5 539.5,689.5C 539.5,694.5 539.5,699.5 539.5,704.5C 544.5,704.5 549.5,704.5 554.5,704.5C 554.5,709.5 554.5,714.5 554.5,719.5C 559.5,719.5 564.5,719.5 569.5,719.5C 569.5,724.5 569.5,729.5 569.5,734.5C 574.5,734.5 579.5,734.5 584.5,734.5C 584.5,729.5 584.5,724.5 584.5,719.5C 589.5,719.5 594.5,719.5 599.5,719.5C 599.5,724.5 599.5,729.5 599.5,734.5C 604.5,734.5 609.5,734.5 614.5,734.5C 614.5,729.5 614.5,724.5 614.5,719.5C 619.5,719.5 624.5,719.5 629.5,719.5C 629.5,714.5 629.5,709.5 629.5,704.5C 634.5,704.5 639.5,704.5 644.5,704.5C 644.5,699.5 644.5,694.5 644.5,689.5C 639.5,689.5 634.5,689.5 629.5,689.5C 629.5,684.5 629.5,679.5 629.5,674.5C 624.5,674.5 619.5,674.5 614.5,674.5C 614.5,669.5 614.5,664.5 614.5,659.5C 609.5,659.5 604.5,659.5 599.5,659.5C 599.5,654.5 599.5,649.5 599.5,644.5C 594.5,644.5 589.5,644.5 584.5,644.5C 584.818,639.968 584.485,635.634 583.5,631.5C 593.904,627.917 604.237,623.917 614.5,619.5 Z"/></g>
<g><path style="opacity:1" fill="#0b0f12" d="M 636.5,726.5 C 645.566,724.969 653.566,727.136 660.5,733C 658.267,735.233 656.1,737.4 654,739.5C 644.481,734.368 636.148,735.701 629,743.5C 625.176,755.871 629.509,763.204 642,765.5C 646.213,765.396 650.213,764.396 654,762.5C 656.487,764.271 658.654,766.438 660.5,769C 651.303,775.936 641.303,777.269 630.5,773C 620.575,766.483 616.408,757.316 618,745.5C 621.044,735.958 627.21,729.625 636.5,726.5 Z"/></g>
<g><path style="opacity:1" fill="#090d11" d="M 553.5,726.5 C 556.833,726.5 560.167,726.5 563.5,726.5C 563.333,737.172 563.5,747.839 564,758.5C 565.881,763.195 569.381,765.528 574.5,765.5C 579.558,765.722 583.391,763.722 586,759.5C 586.5,748.505 586.667,737.505 586.5,726.5C 589.833,726.5 593.167,726.5 596.5,726.5C 596.939,738.909 596.439,751.242 595,763.5C 590.855,771.992 584.022,775.992 574.5,775.5C 565.585,776.126 559.085,772.459 555,764.5C 553.58,751.894 553.08,739.228 553.5,726.5 Z"/></g>
<g><path style="opacity:1" fill="#0a0e12" d="M 488.5,726.5 C 497.173,726.334 505.84,726.5 514.5,727C 525.217,730.727 530.551,738.393 530.5,750C 531.179,762.334 525.845,770.667 514.5,775C 505.84,775.5 497.173,775.666 488.5,775.5C 488.5,759.167 488.5,742.833 488.5,726.5 Z"/></g>
<g><path style="opacity:1" fill="#eeeeee" d="M 498.5,736.5 C 515.256,733.102 522.422,739.768 520,756.5C 518.988,760.719 516.488,763.552 512.5,765C 507.845,765.499 503.179,765.666 498.5,765.5C 498.5,755.833 498.5,746.167 498.5,736.5 Z"/></g>
<g><path style="opacity:1" fill="#0f1215" d="M 208.5,817.5 C 213.179,817.334 217.845,817.501 222.5,818C 226.729,822.556 226.396,826.723 221.5,830.5C 222.971,833.136 224.637,835.636 226.5,838C 225.5,838.667 224.5,838.667 223.5,838C 221.833,835.667 220.167,833.333 218.5,831C 216.19,830.503 213.857,830.337 211.5,830.5C 211.5,833.167 211.5,835.833 211.5,838.5C 210.5,838.5 209.5,838.5 208.5,838.5C 208.5,831.5 208.5,824.5 208.5,817.5 Z"/></g>
<g><path style="opacity:1" fill="#181a1c" d="M 243.5,817.5 C 255.566,816.396 260.4,821.73 258,833.5C 250.771,841.698 244.104,841.365 238,832.5C 235.958,825.873 237.792,820.873 243.5,817.5 Z"/></g>
<g><path style="opacity:1" fill="#1e2022" d="M 278.5,817.5 C 288.755,817.319 292.922,822.319 291,832.5C 289.306,835.358 287.139,837.691 284.5,839.5C 277.2,840.352 272.367,837.352 270,830.5C 268.977,823.683 271.81,819.35 278.5,817.5 Z"/></g>
<g><path style="opacity:1" fill="#181a1c" d="M 322.5,838.5 C 322.666,832.824 322.499,827.157 322,821.5C 321.283,822.044 320.783,822.711 320.5,823.5C 318.523,825.814 316.523,828.147 314.5,830.5C 311.697,828.217 309.364,825.55 307.5,822.5C 307.44,821.957 307.107,821.624 306.5,821.5C 305.505,827.128 305.171,832.794 305.5,838.5C 303.539,831.913 302.872,824.913 303.5,817.5C 304.978,817.238 306.311,817.571 307.5,818.5C 309.372,821.582 311.705,824.249 314.5,826.5C 316.942,823.798 319.276,820.965 321.5,818C 322.448,817.517 323.448,817.351 324.5,817.5C 325.128,824.913 324.461,831.913 322.5,838.5 Z"/></g>
<g><path style="opacity:1" fill="#1d2021" d="M 340.5,817.5 C 343.85,817.335 347.183,817.502 350.5,818C 352.607,819.264 353.607,821.097 353.5,823.5C 352.5,823.5 351.5,823.5 350.5,823.5C 350.5,822.5 350.5,821.5 350.5,820.5C 347.531,819.671 344.531,819.505 341.5,820C 339.503,821.153 339.17,822.653 340.5,824.5C 345.343,825.832 349.843,827.832 354,830.5C 354.61,836.232 351.943,839.232 346,839.5C 340.679,839.901 337.512,837.567 336.5,832.5C 339.156,834.737 342.323,836.07 346,836.5C 350.543,836.868 352.043,835.035 350.5,831C 346.051,829.688 341.884,827.854 338,825.5C 337.018,822.225 337.851,819.559 340.5,817.5 Z"/></g>
<g><path style="opacity:1" fill="#1c1e20" d="M 383.5,817.5 C 386.518,817.335 389.518,817.502 392.5,818C 394.559,819.185 394.726,820.352 393,821.5C 390.775,819.722 388.275,819.222 385.5,820C 382.833,822 382.833,824 385.5,826C 388.669,826.978 391.503,826.478 394,824.5C 395.074,825.618 396.24,826.618 397.5,827.5C 395.933,829.896 395.1,832.563 395,835.5C 390.333,839.5 385.667,839.5 381,835.5C 380.014,832.258 380.848,829.592 383.5,827.5C 379.692,824.223 379.692,820.89 383.5,817.5 Z"/></g>
<g><path style="opacity:1" fill="#15171a" d="M 425.5,836.5 C 425.167,837.167 424.833,837.833 424.5,838.5C 423.503,838.53 422.836,838.03 422.5,837C 424.991,830.867 427.491,824.7 430,818.5C 431.938,817.14 433.604,817.473 435,819.5C 437.402,825.541 439.902,831.541 442.5,837.5C 441.5,838.833 440.5,838.833 439.5,837.5C 438.926,835.941 438.26,834.441 437.5,833C 433.789,832.175 430.122,832.341 426.5,833.5C 425.873,834.417 425.539,835.417 425.5,836.5 Z"/></g>
<g><path style="opacity:1" fill="#212325" d="M 453.5,817.5 C 457.846,817.334 462.179,817.501 466.5,818C 470.292,820.053 471.458,823.219 470,827.5C 469.167,829 468,830.167 466.5,831C 463.183,831.498 459.85,831.665 456.5,831.5C 456.5,833.833 456.5,836.167 456.5,838.5C 455.5,838.5 454.5,838.5 453.5,838.5C 453.5,831.5 453.5,824.5 453.5,817.5 Z"/></g>
<g><path style="opacity:1" fill="#181a1c" d="M 494.5,823.5 C 496.114,828.14 497.781,832.807 499.5,837.5C 499.103,838.525 498.437,838.692 497.5,838C 496.13,836.559 495.13,834.892 494.5,833C 491.167,832.333 487.833,832.333 484.5,833C 483.253,834.946 481.92,836.78 480.5,838.5C 480.167,838 479.833,837.5 479.5,837C 481.979,830.557 484.645,824.224 487.5,818C 488.944,817.219 490.277,817.386 491.5,818.5C 491.957,820.598 492.957,822.264 494.5,823.5 Z"/></g>
<g><path style="opacity:1" fill="#0a0e12" d="M 511.5,817.5 C 515.5,817.5 519.5,817.5 523.5,817.5C 527.6,819.031 529.1,822.031 528,826.5C 527.209,828.604 525.709,829.937 523.5,830.5C 525.043,833.086 526.709,835.586 528.5,838C 527.5,838.667 526.5,838.667 525.5,838C 524.292,835.75 522.959,833.583 521.5,831.5C 518.914,830.52 516.247,830.187 513.5,830.5C 513.813,833.247 513.48,835.914 512.5,838.5C 511.503,831.532 511.17,824.532 511.5,817.5 Z"/></g>
<g><path style="opacity:1" fill="#060b0f" d="M 548.5,838.5 C 546.851,832.399 545.851,826.065 545.5,819.5C 543.076,819.808 540.743,819.474 538.5,818.5C 544.5,817.167 550.5,817.167 556.5,818.5C 553.914,819.48 551.247,819.813 548.5,819.5C 548.5,825.833 548.5,832.167 548.5,838.5 Z"/></g>
<g><path style="opacity:1" fill="#181a1c" d="M 571.5,823.5 C 571.44,822.957 571.107,822.624 570.5,822.5C 570.134,828.229 569.134,833.563 567.5,838.5C 567.5,831.5 567.5,824.5 567.5,817.5C 568.552,817.351 569.552,817.517 570.5,818C 572.644,820.979 574.978,823.812 577.5,826.5C 580.295,824.249 582.628,821.582 584.5,818.5C 585.689,817.571 587.022,817.238 588.5,817.5C 588.5,824.5 588.5,831.5 588.5,838.5C 587.5,838.5 586.5,838.5 585.5,838.5C 585.666,833.156 585.499,827.823 585,822.5C 583.022,825.645 580.522,828.312 577.5,830.5C 575.448,828.122 573.448,825.789 571.5,823.5 Z"/></g>
<g><path style="opacity:1" fill="#1d1f21" d="M 601.5,817.5 C 606.875,817.172 612.208,817.505 617.5,818.5C 613.217,819.492 608.884,819.826 604.5,819.5C 604.5,821.833 604.5,824.167 604.5,826.5C 608.5,826.5 612.5,826.5 616.5,826.5C 616.5,827.5 616.5,828.5 616.5,829.5C 612.5,829.5 608.5,829.5 604.5,829.5C 604.5,831.833 604.5,834.167 604.5,836.5C 608.884,836.174 613.217,836.508 617.5,837.5C 612.208,838.495 606.875,838.828 601.5,838.5C 601.5,831.5 601.5,824.5 601.5,817.5 Z"/></g>
<g><path style="opacity:1" fill="#1f2122" d="M 629.5,817.5 C 630.978,817.238 632.311,817.571 633.5,818.5C 637.333,823.5 641.167,828.5 645,833.5C 645.499,828.177 645.666,822.844 645.5,817.5C 646.5,817.5 647.5,817.5 648.5,817.5C 648.5,824.5 648.5,831.5 648.5,838.5C 647.022,838.762 645.689,838.429 644.5,837.5C 640.422,832.343 636.588,827.01 633,821.5C 632.501,827.157 632.334,832.824 632.5,838.5C 631.5,838.5 630.5,838.5 629.5,838.5C 629.5,831.5 629.5,824.5 629.5,817.5 Z"/></g>
<g><path style="opacity:1" fill="#060b0f" d="M 659.5,817.5 C 665.206,817.171 670.872,817.505 676.5,818.5C 674.257,819.474 671.924,819.808 669.5,819.5C 668.833,844.833 668.167,844.833 667.5,819.5C 664.302,820.036 661.635,819.369 659.5,817.5 Z"/></g>
<g><path style="opacity:1" fill="#15181a" d="M 704.5,830.5 C 704.967,833.38 704.134,835.713 702,837.5C 696.766,840.522 692.099,839.855 688,835.5C 687.251,834.365 687.417,833.365 688.5,832.5C 689.845,833.347 690.845,834.513 691.5,836C 694.5,836.667 697.5,836.667 700.5,836C 702.527,834.604 702.86,832.938 701.5,831C 698.27,829.692 694.936,828.692 691.5,828C 689.65,827.31 688.316,826.144 687.5,824.5C 687.081,821.675 688.081,819.509 690.5,818C 696.401,816.195 701.068,817.695 704.5,822.5C 704,822.833 703.5,823.167 703,823.5C 701.159,820.995 698.659,819.662 695.5,819.5C 691.662,819.207 690.162,820.874 691,824.5C 695.602,826.275 700.102,828.275 704.5,830.5 Z"/></g>
<g><path style="opacity:1" fill="#ededed" d="M 211.5,819.5 C 215.308,819.163 218.974,819.663 222.5,821C 224.02,823.552 223.687,825.718 221.5,827.5C 218.167,827.5 214.833,827.5 211.5,827.5C 211.5,824.833 211.5,822.167 211.5,819.5 Z"/></g>
<g><path style="opacity:1" fill="#e4e4e4" d="M 513.5,819.5 C 516.85,819.335 520.183,819.502 523.5,820C 527.366,822.755 527.366,825.421 523.5,828C 520.183,828.498 516.85,828.665 513.5,828.5C 513.5,825.5 513.5,822.5 513.5,819.5 Z"/></g>
<g><path style="opacity:1" fill="#8e8e8d" d="M 545.5,819.5 C 545.851,826.065 546.851,832.399 548.5,838.5C 547.791,839.404 546.791,839.737 545.5,839.5C 545.5,832.833 545.5,826.167 545.5,819.5 Z"/></g>
<g><path style="opacity:1" fill="#4f504d" d="M 307.5,822.5 C 306.833,827.833 306.167,833.167 305.5,838.5C 305.171,832.794 305.505,827.128 306.5,821.5C 307.107,821.624 307.44,821.957 307.5,822.5 Z"/></g>
<g><path style="opacity:1" fill="#919191" d="M 322.5,838.5 C 321.833,833.5 321.167,828.5 320.5,823.5C 320.783,822.711 321.283,822.044 322,821.5C 322.499,827.157 322.666,832.824 322.5,838.5 Z"/></g>
<g><path style="opacity:1" fill="#fdfdfd" d="M 523.5,817.5 C 519.5,817.5 515.5,817.5 511.5,817.5C 510.508,824.648 510.175,831.981 510.5,839.5C 515.167,839.5 519.833,839.5 524.5,839.5C 524.5,844.5 524.5,849.5 524.5,854.5C 519.5,854.5 514.5,854.5 509.5,854.5C 509.5,849.5 509.5,844.5 509.5,839.5C 505.821,839.94 502.488,839.273 499.5,837.5C 497.781,832.807 496.114,828.14 494.5,823.5C 499.405,824.445 504.405,824.779 509.5,824.5C 509.5,819.5 509.5,814.5 509.5,809.5C 514.5,809.5 519.5,809.5 524.5,809.5C 524.806,812.385 524.473,815.052 523.5,817.5 Z"/></g>
<g><path style="opacity:1" fill="#999999" d="M 571.5,823.5 C 570.512,828.64 570.179,833.974 570.5,839.5C 569.209,839.737 568.209,839.404 567.5,838.5C 569.134,833.563 570.134,828.229 570.5,822.5C 571.107,822.624 571.44,822.957 571.5,823.5 Z"/></g>
<g><path style="opacity:1" fill="#e5e5e5" d="M 245.5,819.5 C 255.349,819.517 258.516,824.184 255,833.5C 251.617,836.487 247.783,837.154 243.5,835.5C 237.666,829.193 238.332,823.86 245.5,819.5 Z"/></g>
<g><path style="opacity:1" fill="#e8e8e8" d="M 276.5,819.5 C 288.7,819.51 291.7,824.677 285.5,835C 275.446,837.955 271.28,834.121 273,823.5C 274.376,822.295 275.542,820.962 276.5,819.5 Z"/></g>
<g><path style="opacity:1" fill="#f5f5f5" d="M 687.5,824.5 C 688.316,826.144 689.65,827.31 691.5,828C 694.936,828.692 698.27,829.692 701.5,831C 702.86,832.938 702.527,834.604 700.5,836C 697.5,836.667 694.5,836.667 691.5,836C 690.845,834.513 689.845,833.347 688.5,832.5C 687.417,833.365 687.251,834.365 688,835.5C 692.099,839.855 696.766,840.522 702,837.5C 704.134,835.713 704.967,833.38 704.5,830.5C 704.5,828.5 704.5,826.5 704.5,824.5C 709.5,824.5 714.5,824.5 719.5,824.5C 719.5,829.5 719.5,834.5 719.5,839.5C 724.5,839.5 729.5,839.5 734.5,839.5C 734.5,844.5 734.5,849.5 734.5,854.5C 739.5,854.5 744.5,854.5 749.5,854.5C 749.5,859.5 749.5,864.5 749.5,869.5C 754.5,869.5 759.5,869.5 764.5,869.5C 764.5,874.5 764.5,879.5 764.5,884.5C 769.5,884.5 774.5,884.5 779.5,884.5C 779.5,889.5 779.5,894.5 779.5,899.5C 779.5,904.5 779.5,909.5 779.5,914.5C 774.5,914.5 769.5,914.5 764.5,914.5C 764.5,909.5 764.5,904.5 764.5,899.5C 759.5,899.5 754.5,899.5 749.5,899.5C 749.5,904.5 749.5,909.5 749.5,914.5C 744.5,914.5 739.5,914.5 734.5,914.5C 734.5,909.5 734.5,904.5 734.5,899.5C 734.5,894.5 734.5,889.5 734.5,884.5C 729.5,884.5 724.5,884.5 719.5,884.5C 719.5,879.5 719.5,874.5 719.5,869.5C 714.5,869.5 709.5,869.5 704.5,869.5C 704.5,864.5 704.5,859.5 704.5,854.5C 699.5,854.5 694.5,854.5 689.5,854.5C 689.5,849.5 689.5,844.5 689.5,839.5C 684.5,839.5 679.5,839.5 674.5,839.5C 674.5,834.5 674.5,829.5 674.5,824.5C 678.833,824.5 683.167,824.5 687.5,824.5 Z"/></g>
<g><path style="opacity:1" fill="#eaeaea" d="M 456.5,819.5 C 459.85,819.335 463.183,819.502 466.5,820C 469.167,822.667 469.167,825.333 466.5,828C 463.183,828.498 459.85,828.665 456.5,828.5C 456.5,825.5 456.5,822.5 456.5,819.5 Z"/></g>
<g><path style="opacity:1" fill="#d7d8d8" d="M 488.5,821.5 C 489.496,821.414 490.329,821.748 491,822.5C 491.658,825.285 492.491,827.951 493.5,830.5C 490.753,830.813 488.086,830.48 485.5,829.5C 486.508,826.805 487.508,824.138 488.5,821.5 Z"/></g>
<g><path style="opacity:1" fill="#7a7a7a" d="M 211.5,819.5 C 211.5,822.167 211.5,824.833 211.5,827.5C 214.833,827.5 218.167,827.5 221.5,827.5C 218.038,828.482 214.371,828.815 210.5,828.5C 210.19,825.287 210.523,822.287 211.5,819.5 Z"/></g>
<g><path style="opacity:1" fill="#d4d4d4" d="M 431.5,820.5 C 432.497,820.47 433.164,820.97 433.5,822C 434.206,824.62 435.206,827.12 436.5,829.5C 433.914,830.48 431.247,830.813 428.5,830.5C 429.444,827.194 430.444,823.861 431.5,820.5 Z"/></g>
<g><path style="opacity:1" fill="#efeff0" d="M 384.5,828.5 C 387.167,828.5 389.833,828.5 392.5,828.5C 393.816,835.334 391.149,837.834 384.5,836C 382.497,833.691 382.497,831.191 384.5,828.5 Z"/></g>
<g><path style="opacity:1" fill="#f9f9f9" d="M -0.5,899.5 C 4.5,899.5 9.5,899.5 14.5,899.5C 14.5,904.5 14.5,909.5 14.5,914.5C 19.5,914.5 24.5,914.5 29.5,914.5C 29.5,909.5 29.5,904.5 29.5,899.5C 34.5,899.5 39.5,899.5 44.5,899.5C 44.5,904.5 44.5,909.5 44.5,914.5C 49.5,914.5 54.5,914.5 59.5,914.5C 59.5,909.5 59.5,904.5 59.5,899.5C 64.5,899.5 69.5,899.5 74.5,899.5C 74.5,904.5 74.5,909.5 74.5,914.5C 79.5,914.5 84.5,914.5 89.5,914.5C 89.5,909.5 89.5,904.5 89.5,899.5C 94.5,899.5 99.5,899.5 104.5,899.5C 104.5,904.5 104.5,909.5 104.5,914.5C 109.5,914.5 114.5,914.5 119.5,914.5C 119.5,909.5 119.5,904.5 119.5,899.5C 124.5,899.5 129.5,899.5 134.5,899.5C 134.5,904.5 134.5,909.5 134.5,914.5C 139.5,914.5 144.5,914.5 149.5,914.5C 149.5,909.5 149.5,904.5 149.5,899.5C 154.5,899.5 159.5,899.5 164.5,899.5C 164.5,904.5 164.5,909.5 164.5,914.5C 169.5,914.5 174.5,914.5 179.5,914.5C 179.5,909.5 179.5,904.5 179.5,899.5C 184.5,899.5 189.5,899.5 194.5,899.5C 194.5,904.5 194.5,909.5 194.5,914.5C 199.5,914.5 204.5,914.5 209.5,914.5C 209.5,909.5 209.5,904.5 209.5,899.5C 214.5,899.5 219.5,899.5 224.5,899.5C 224.5,904.5 224.5,909.5 224.5,914.5C 229.5,914.5 234.5,914.5 239.5,914.5C 239.5,909.5 239.5,904.5 239.5,899.5C 244.5,899.5 249.5,899.5 254.5,899.5C 254.5,904.5 254.5,909.5 254.5,914.5C 259.5,914.5 264.5,914.5 269.5,914.5C 269.5,909.5 269.5,904.5 269.5,899.5C 274.5,899.5 279.5,899.5 284.5,899.5C 284.5,904.5 284.5,909.5 284.5,914.5C 289.5,914.5 294.5,914.5 299.5,914.5C 299.5,909.5 299.5,904.5 299.5,899.5C 304.5,899.5 309.5,899.5 314.5,899.5C 314.5,904.5 314.5,909.5 314.5,914.5C 319.5,914.5 324.5,914.5 329.5,914.5C 329.5,909.5 329.5,904.5 329.5,899.5C 334.5,899.5 339.5,899.5 344.5,899.5C 344.5,904.5 344.5,909.5 344.5,914.5C 349.5,914.5 354.5,914.5 359.5,914.5C 359.5,909.5 359.5,904.5 359.5,899.5C 364.5,899.5 369.5,899.5 374.5,899.5C 374.5,904.5 374.5,909.5 374.5,914.5C 379.5,914.5 384.5,914.5 389.5,914.5C 389.5,909.5 389.5,904.5 389.5,899.5C 394.5,899.5 399.5,899.5 404.5,899.5C 404.5,904.5 404.5,909.5 404.5,914.5C 409.5,914.5 414.5,914.5 419.5,914.5C 419.5,909.5 419.5,904.5 419.5,899.5C 424.5,899.5 429.5,899.5 434.5,899.5C 434.5,904.5 434.5,909.5 434.5,914.5C 439.5,914.5 444.5,914.5 449.5,914.5C 449.5,909.5 449.5,904.5 449.5,899.5C 454.5,899.5 459.5,899.5 464.5,899.5C 464.5,904.5 464.5,909.5 464.5,914.5C 469.5,914.5 474.5,914.5 479.5,914.5C 479.5,909.5 479.5,904.5 479.5,899.5C 484.5,899.5 489.5,899.5 494.5,899.5C 494.5,904.5 494.5,909.5 494.5,914.5C 499.5,914.5 504.5,914.5 509.5,914.5C 509.5,909.5 509.5,904.5 509.5,899.5C 514.5,899.5 519.5,899.5 524.5,899.5C 524.5,904.5 524.5,909.5 524.5,914.5C 529.5,914.5 534.5,914.5 539.5,914.5C 539.5,909.5 539.5,904.5 539.5,899.5C 544.5,899.5 549.5,899.5 554.5,899.5C 554.5,904.5 554.5,909.5 554.5,914.5C 559.5,914.5 564.5,914.5 569.5,914.5C 569.5,909.5 569.5,904.5 569.5,899.5C 574.5,899.5 579.5,899.5 584.5,899.5C 584.5,904.5 584.5,909.5 584.5,914.5C 589.5,914.5 594.5,914.5 599.5,914.5C 599.5,909.5 599.5,904.5 599.5,899.5C 604.5,899.5 609.5,899.5 614.5,899.5C 614.5,904.5 614.5,909.5 614.5,914.5C 619.5,914.5 624.5,914.5 629.5,914.5C 629.5,909.5 629.5,904.5 629.5,899.5C 634.5,899.5 639.5,899.5 644.5,899.5C 644.5,904.5 644.5,909.5 644.5,914.5C 649.5,914.5 654.5,914.5 659.5,914.5C 659.5,909.5 659.5,904.5 659.5,899.5C 664.5,899.5 669.5,899.5 674.5,899.5C 674.5,904.5 674.5,909.5 674.5,914.5C 679.5,914.5 684.5,914.5 689.5,914.5C 689.5,909.5 689.5,904.5 689.5,899.5C 694.5,899.5 699.5,899.5 704.5,899.5C 704.5,904.5 704.5,909.5 704.5,914.5C 709.5,914.5 714.5,914.5 719.5,914.5C 719.5,909.5 719.5,904.5 719.5,899.5C 724.5,899.5 729.5,899.5 734.5,899.5C 734.5,904.5 734.5,909.5 734.5,914.5C 739.5,914.5 744.5,914.5 749.5,914.5C 749.5,909.5 749.5,904.5 749.5,899.5C 754.5,899.5 759.5,899.5 764.5,899.5C 764.5,904.5 764.5,909.5 764.5,914.5C 769.5,914.5 774.5,914.5 779.5,914.5C 779.5,909.5 779.5,904.5 779.5,899.5C 784.5,899.5 789.5,899.5 794.5,899.5C 794.5,904.5 794.5,909.5 794.5,914.5C 799.5,914.5 804.5,914.5 809.5,914.5C 809.5,909.5 809.5,904.5 809.5,899.5C 814.5,899.5 819.5,899.5 824.5,899.5C 824.5,904.5 824.5,909.5 824.5,914.5C 829.5,914.5 834.5,914.5 839.5,914.5C 839.5,909.5 839.5,904.5 839.5,899.5C 844.5,899.5 849.5,899.5 854.5,899.5C 854.5,904.5 854.5,909.5 854.5,914.5C 859.5,914.5 864.5,914.5 869.5,914.5C 869.5,909.5 869.5,904.5 869.5,899.5C 874.5,899.5 879.5,899.5 884.5,899.5C 884.5,904.5 884.5,909.5 884.5,914.5C 889.5,914.5 894.5,914.5 899.5,914.5C 899.5,916.167 899.5,917.833 899.5,919.5C 599.5,919.5 299.5,919.5 -0.5,919.5C -0.5,912.833 -0.5,906.167 -0.5,899.5 Z"/></g>
</svg>
